<svg xmlns="http://www.w3.org/2000/svg" viewBox="-1888.719 123.621 452.993 422.882"><defs><style>.a{opacity:0.229;}.b{fill:#fc7a51;}.c{fill:#fda589;}.d{fill:#86d359;}.e{fill:#ade18e;}.f{fill:#b3b3b3;}.g{fill:#29abe2;}.h{fill:#fcd18b;}.i{fill:#ddb57a;}.j,.o{fill:#fff;}.k{fill:#999;}.l{fill:#2be0c6;}.m{fill:gray;}.n{fill:#f9de58;}.o{font-size:98px;font-family:AdobeArabic-Regular, Adobe Arabic;}</style></defs><g class="a" transform="translate(-1888.719 123.621)"><path class="b" d="M270.586,250.594a40.722,40.722,0,0,1-25.941,37.944,39.751,39.751,0,0,1-14.852,2.747,40.78,40.78,0,0,1-8.952-80.568,42.324,42.324,0,0,1,8.952-1.017,41.006,41.006,0,0,1,40.793,40.895" transform="translate(3.265 3.623)"/><path class="c" d="M229.352,209.9a37.769,37.769,0,0,0-8.952,1.017l23.7,77.72A40.764,40.764,0,0,0,229.352,209.9" transform="translate(3.808 3.626)"/><path class="d" d="M130.517,253.307a65.258,65.258,0,1,1-78.432-63.885A70,70,0,0,1,65.207,188.1a65.231,65.231,0,0,1,65.309,65.207" transform="translate(0 3.25)"/><path class="e" d="M64.323,188.1A62.43,62.43,0,0,0,51.2,189.422L89.043,313.734A65.259,65.259,0,0,0,64.323,188.1" transform="translate(0.885 3.25)"/><path class="f" d="M385.157,315.515a62.257,62.257,0,1,1,62.257-62.257A62.322,62.322,0,0,1,385.157,315.515Zm0-111.29a49.033,49.033,0,1,0,49.033,49.033A49.059,49.059,0,0,0,385.157,204.225Z" transform="translate(5.579 3.3)"/><path class="g" d="M398.541,221.7l-3.662,4.069,15.666,14.14H359.071l15.666-14.14-3.662-4.069L349,241.74l10.173,42.013h51.271l10.173-42.013ZM381.96,252.727H370.668l-1.017-7.223H381.96Zm5.493-7.324h12.309l-1.017,7.223H387.453V245.4Zm-22.278,7.324h-8.037l-1.729-7.223h8.85Zm-6.714,5.392h7.426l1.017,7.63h-6.612Zm12.919,0h10.58v7.63H372.4Zm16.073,0h10.58l-1.017,7.63h-9.563Zm16.175,0h7.426l-1.831,7.63H402.61Zm.712-5.392,1.017-7.223h8.85l-1.729,7.223Zm-41,25.534-1.729-7.019h6l.915,7.019Zm9.867-6.917h8.85v7.019h-7.935Zm14.242,6.917v-7.019h8.85l-.915,7.019Zm13.428,0,.915-7.019h6l-1.729,7.019Z" transform="translate(6.03 3.83)"/><path class="h" d="M288.911,338.771a9.549,9.549,0,0,0-13.632-.1L261.852,352.1A12.208,12.208,0,0,1,241,343.45V261.966a9.551,9.551,0,0,0-16.276-7.019,9.37,9.37,0,0,0-2.747,6.714v41.708a9.66,9.66,0,0,0-2.645-6.612,9.4,9.4,0,0,0-2.238-1.729,9.179,9.179,0,0,0-4.679-1.221,9.06,9.06,0,0,0-6.714,2.848,9.457,9.457,0,0,0-2.848,6.714v3.255a9.66,9.66,0,0,0-2.645-6.612,13.24,13.24,0,0,0-2.34-1.831,9.825,9.825,0,0,0-4.578-1.119,8.9,8.9,0,0,0-6.714,2.848,9.7,9.7,0,0,0-2.848,6.816v8.036a9.66,9.66,0,0,0-2.645-6.612l-.1-.1a7.108,7.108,0,0,0-1.729-1.323,9.515,9.515,0,0,0-6.307-1.322,9.779,9.779,0,0,0-8.342,9.766v46.795a26.885,26.885,0,0,0,1.424,8.545,24.04,24.04,0,0,0,4.273,7.528l.1.1a37.71,37.71,0,0,1,8.85,23.906v16.48H241.2v-14.14a17.182,17.182,0,0,1,9.257-15.056h.1a57.383,57.383,0,0,0,15.259-11.8l20.854-22.583,2.441-2.645a9.151,9.151,0,0,0,2.238-4.273A10.116,10.116,0,0,0,288.911,338.771Z" transform="translate(2.844 4.357)"/><path class="i" d="M183.445,313.712v21.261a1.322,1.322,0,0,1-2.645,0V307.1A9.293,9.293,0,0,1,183.445,313.712Z" transform="translate(3.124 5.306)"/><path class="i" d="M202.245,305.812v24.11a1.322,1.322,0,0,1-2.645,0V299.2A9.66,9.66,0,0,1,202.245,305.812Z" transform="translate(3.448 5.169)"/><path class="i" d="M221.045,302.612v30.722a1.322,1.322,0,0,1-2.645,0V296A9.474,9.474,0,0,1,221.045,302.612Z" transform="translate(3.773 5.114)"/><path class="j" d="M236.607,261.6a6.1,6.1,0,0,0-12.207,0c0,3.357,2.747,3.56,6.1,3.56S236.607,264.961,236.607,261.6Z" transform="translate(3.877 4.414)"/><path class="j" d="M289.3,346.04a9.152,9.152,0,0,1-2.238,4.273l-2.441,2.645-6.816-6.816A8.075,8.075,0,0,1,289.3,346.04Z" transform="translate(4.799 5.938)"/><path class="k" d="M266.637,51.221V44.1H198.886a49.205,49.205,0,0,0-44.251,27.568,19.744,19.744,0,0,0-2.035,8.85,20.605,20.605,0,0,0,5.6,13.937,18.474,18.474,0,0,0,6.307,4.374,20.989,20.989,0,0,0,8.036,1.628H293.086a20.988,20.988,0,0,0,8.036-1.628,20.088,20.088,0,0,0,12-18.311,21.2,21.2,0,0,0-2.035-8.85A49.432,49.432,0,0,0,266.84,44.1V58.342a35.121,35.121,0,0,1,31.536,19.633,6.183,6.183,0,0,1,.61,2.543,5.575,5.575,0,0,1-3.459,5.188,5.652,5.652,0,0,1-2.34.509H172.539a5.651,5.651,0,0,1-2.34-.509,5.513,5.513,0,0,1-2.441-2.136,5.711,5.711,0,0,1-.916-3.154,6.181,6.181,0,0,1,.61-2.543A35.121,35.121,0,0,1,198.988,58.24h67.751l-.1-7.019Z" transform="translate(2.636 0.762)"/><path class="k" d="M238.9,51.983h0a29.294,29.294,0,0,0-11.8-23.6,8.835,8.835,0,0,1-2.34-2.747,8.316,8.316,0,0,1-.814-3.56v-.509a7.212,7.212,0,0,1,2.34-4.985,8.454,8.454,0,0,1,4.985-2.34h.509a7.433,7.433,0,0,1,3.052.61,7.8,7.8,0,0,1,4.781,7.223H253.85a22.237,22.237,0,0,0-1.729-8.647,21.965,21.965,0,0,0-8.036-9.664A22.512,22.512,0,0,0,231.775,0h-1.424a22.034,22.034,0,0,0-14.242,6.409A21.808,21.808,0,0,0,209.7,20.651h0v1.424a22.632,22.632,0,0,0,2.441,10.071,21.4,21.4,0,0,0,6.511,7.63,15.32,15.32,0,0,1,6.1,12.207H238.9Z" transform="translate(3.623 0)"/><rect class="l" width="30.518" height="9.155" transform="translate(139.367 254.624)"/><rect class="l" width="30.518" height="9.155" transform="translate(290.432 254.624)"/><rect class="l" width="9.155" height="65.818" transform="translate(228.582 125.227)"/><rect class="l" width="135.094" height="9.155" transform="translate(274.107 207.126) rotate(-45)"/><rect class="l" width="9.155" height="134.281" transform="translate(90.725 118.714) rotate(-45)"/><path class="m" d="M396.931,92.077l26.653,26.653a6.2,6.2,0,0,0,8.647,0,6.109,6.109,0,0,0,0-8.647L405.578,83.43a6.2,6.2,0,0,0-8.647,0,6.019,6.019,0,0,0,0,8.647" transform="translate(6.826 1.411)"/><path class="g" d="M406.645,93.245a32.585,32.585,0,1,1,0-46.083A32.6,32.6,0,0,1,406.645,93.245ZM369.921,56.521a19.35,19.35,0,1,0,27.365,0A19.4,19.4,0,0,0,369.921,56.521Z" transform="translate(6.065 0.65)"/><path class="n" d="M87.4,108.7H34.5V55.8H87.4Zm-44.76-8.138H79.26V63.938H42.638Z" transform="translate(0.596 0.964)"/><path class="n" d="M76.636,60.457H68.5V37.67a7.63,7.63,0,1,0-15.259.1V60.66H45.1V37.67A15.869,15.869,0,0,1,60.868,21.8a15.368,15.368,0,0,1,11.19,4.679,15.779,15.779,0,0,1,4.679,11.19V60.457Z" transform="translate(0.779 0.377)"/><text class="o" transform="translate(20.418 269.694)"><tspan x="0" y="0">Rp</tspan></text></g></svg>