<svg xmlns="http://www.w3.org/2000/svg" viewBox="-982.476 382 22.46 13.29">
  <defs>
    <style>
      .cls-1 {
        fill: #91dc5a;
      }
    </style>
  </defs>
  <g id="icon-viewdetails" transform="translate(-982.476 369.356)">
    <path id="Path_15484" data-name="Path 15484" class="cls-1" d="M19.372,16.139a11.321,11.321,0,0,0-16.359,0L0,19.25,3.087,22.44a11.321,11.321,0,0,0,16.36,0l3.013-3.112Zm-.462,5.747a10.579,10.579,0,0,1-15.287,0L1.073,19.25l2.476-2.558a10.579,10.579,0,0,1,15.287,0l2.551,2.635Z" transform="translate(0 0)"/>
    <path id="Path_15485" data-name="Path 15485" class="cls-1" d="M24.228,21.57a2.7,2.7,0,0,0-2.656,2.743.38.38,0,1,0,.759,0,1.931,1.931,0,0,1,1.9-1.96.392.392,0,0,0,0-.784Z" transform="translate(-13.388 -5.428)"/>
    <path id="Path_15486" data-name="Path 15486" class="cls-1" d="M21.5,16.57a5.1,5.1,0,1,0,4.932,5.095A5.021,5.021,0,0,0,21.5,16.57Zm0,9.406a4.313,4.313,0,1,1,4.173-4.311A4.249,4.249,0,0,1,21.5,25.976Z" transform="translate(-10.285 -2.387)"/>
  </g>
</svg>
