<svg xmlns="http://www.w3.org/2000/svg" viewBox="-1260.245 271.351 52.282 52.282"><defs><style>.a{fill:#ededed;}.b{fill:#fbbb00;}.c{fill:#518ef8;}.d{fill:#28b446;}.e{fill:#f14336;}</style></defs><g transform="translate(-1260.245 271.351)"><rect class="a" width="52.282" height="52.282" transform="translate(0)"/><g transform="translate(9.71 10.943)"><path class="b" d="M7.169,149.081l-1.126,4.2-4.115.087a16.2,16.2,0,0,1-.119-15.1h0l3.664.672,1.605,3.642a9.653,9.653,0,0,0,.091,6.5Z" transform="translate(0 -129.532)"/><path class="c" d="M277.164,208.176a16.168,16.168,0,0,1-5.766,15.635h0l-4.615-.235-.653-4.077a9.639,9.639,0,0,0,4.147-4.922h-8.649v-6.4h15.536Z" transform="translate(-245.098 -195.024)"/><path class="d" d="M54.88,318.647h0A16.179,16.179,0,0,1,30.509,313.7l5.241-4.291a9.62,9.62,0,0,0,13.862,4.925Z" transform="translate(-28.581 -289.861)"/><path class="e" d="M53.313,3.724l-5.24,4.29a9.618,9.618,0,0,0-14.18,5.036L28.625,8.736h0A16.177,16.177,0,0,1,53.313,3.724Z" transform="translate(-26.816)"/></g></g></svg>