<svg xmlns="http://www.w3.org/2000/svg" viewBox="-1132 504.75 45.25 45.25"><defs><style>.a,.c{fill:none;}.a{stroke:#000;}.b{stroke:none;}</style></defs><g transform="translate(-1317 212)"><g class="a" transform="translate(185 292.75)"><circle class="b" cx="22.625" cy="22.625" r="22.625"/><circle class="c" cx="22.625" cy="22.625" r="22.125"/></g><g transform="translate(193 301)"><path d="M27.041,4.433a1.332,1.332,0,0,0,1.33-1.33V1.33A1.332,1.332,0,0,0,27.041,0H18.175a1.332,1.332,0,0,0-1.33,1.33V3.1a1.332,1.332,0,0,0,1.33,1.33h3.99v1.33H9.753V1.773a.443.443,0,0,0-.641-.4l-.688.344-.688-.344a.443.443,0,0,0-.4,0l-.688.344-.688-.344a.443.443,0,0,0-.4,0l-.688.344-.688-.344a.443.443,0,0,0-.641.4v3.99H.443A.443.443,0,0,0,0,6.206V26.155a2.219,2.219,0,0,0,2.217,2.217H26.155a2.219,2.219,0,0,0,2.217-2.217V6.206a.443.443,0,0,0-.443-.443H23.052V4.433ZM9.753,8.423a.443.443,0,0,1,0,.887ZM4.433,2.49l.245.122a.443.443,0,0,0,.4,0l.688-.344.688.344a.443.443,0,0,0,.4,0l.688-.344.688.344a.443.443,0,0,0,.4,0l.245-.122V9.309H4.433ZM3.1,8.866a.444.444,0,0,1,.443-.443v.887A.444.444,0,0,1,3.1,8.866ZM27.485,26.155a1.332,1.332,0,0,1-1.33,1.33H2.217a1.332,1.332,0,0,1-1.33-1.33V22.608h26.6Zm0-4.433H.887V6.65h2.66v.887a1.33,1.33,0,1,0,0,2.66H9.753a1.33,1.33,0,0,0,0-2.66V6.65H27.485ZM17.732,3.1V1.33a.444.444,0,0,1,.443-.443h8.866a.444.444,0,0,1,.443.443V3.1a.444.444,0,0,1-.443.443H18.175A.444.444,0,0,1,17.732,3.1Z"/><path d="M36.443,21.433H46.2a.443.443,0,0,0,.443-.443V17.443A.443.443,0,0,0,46.2,17H36.443a.443.443,0,0,0-.443.443V20.99A.443.443,0,0,0,36.443,21.433Zm.443-3.546h8.866v2.66H36.887Z" transform="translate(-20.041 -9.464)"/><path d="M6.66,25H4.443A.443.443,0,0,0,4,25.443v1.773a.443.443,0,0,0,.443.443H6.66a.443.443,0,0,0,.443-.443V25.443A.443.443,0,0,0,6.66,25Zm-.443,1.773H4.887v-.887h1.33Z" transform="translate(-2.227 -13.917)"/><path d="M15.66,25H13.443a.443.443,0,0,0-.443.443v1.773a.443.443,0,0,0,.443.443H15.66a.443.443,0,0,0,.443-.443V25.443A.443.443,0,0,0,15.66,25Zm-.443,1.773h-1.33v-.887h1.33Z" transform="translate(-7.237 -13.917)"/><path d="M22,25.443v1.773a.443.443,0,0,0,.443.443H24.66a.443.443,0,0,0,.443-.443V25.443A.443.443,0,0,0,24.66,25H22.443A.443.443,0,0,0,22,25.443Zm.887.443h1.33v.887h-1.33Z" transform="translate(-12.247 -13.917)"/><path d="M6.66,33H4.443A.443.443,0,0,0,4,33.443v1.773a.443.443,0,0,0,.443.443H6.66a.443.443,0,0,0,.443-.443V33.443A.443.443,0,0,0,6.66,33Zm-.443,1.773H4.887v-.887h1.33Z" transform="translate(-2.227 -18.371)"/><path d="M15.66,33H13.443a.443.443,0,0,0-.443.443v1.773a.443.443,0,0,0,.443.443H15.66a.443.443,0,0,0,.443-.443V33.443A.443.443,0,0,0,15.66,33Zm-.443,1.773h-1.33v-.887h1.33Z" transform="translate(-7.237 -18.371)"/><path d="M24.66,33H22.443a.443.443,0,0,0-.443.443v1.773a.443.443,0,0,0,.443.443H24.66a.443.443,0,0,0,.443-.443V33.443A.443.443,0,0,0,24.66,33Zm-.443,1.773h-1.33v-.887h1.33Z" transform="translate(-12.247 -18.371)"/><path d="M6.66,41H4.443A.443.443,0,0,0,4,41.443v1.773a.443.443,0,0,0,.443.443H6.66a.443.443,0,0,0,.443-.443V41.443A.443.443,0,0,0,6.66,41Zm-.443,1.773H4.887v-.887h1.33Z" transform="translate(-2.227 -22.825)"/><path d="M15.66,41H13.443a.443.443,0,0,0-.443.443v1.773a.443.443,0,0,0,.443.443H15.66a.443.443,0,0,0,.443-.443V41.443A.443.443,0,0,0,15.66,41Zm-.443,1.773h-1.33v-.887h1.33Z" transform="translate(-7.237 -22.825)"/><path d="M24.66,41H22.443a.443.443,0,0,0-.443.443v1.773a.443.443,0,0,0,.443.443H24.66a.443.443,0,0,0,.443-.443V41.443A.443.443,0,0,0,24.66,41Zm-.443,1.773h-1.33v-.887h1.33Z" transform="translate(-12.247 -22.825)"/><path d="M39.216,33H37.443a.443.443,0,0,0-.443.443v1.773a.443.443,0,0,0,.443.443h1.773a.443.443,0,0,0,.443-.443V33.443A.443.443,0,0,0,39.216,33Zm-.443,1.773h-.887v-.887h.887Z" transform="translate(-20.598 -18.371)"/><path d="M47.217,33H45.443a.443.443,0,0,0-.443.443v1.773a.443.443,0,0,0,.443.443h1.773a.443.443,0,0,0,.443-.443V33.443A.443.443,0,0,0,47.217,33Zm-.443,1.773h-.887v-.887h.887Z" transform="translate(-25.051 -18.371)"/><path d="M55.217,33H53.443a.443.443,0,0,0-.443.443v1.773a.443.443,0,0,0,.443.443h1.773a.443.443,0,0,0,.443-.443V33.443A.443.443,0,0,0,55.217,33Zm-.443,1.773h-.887v-.887h.887Z" transform="translate(-29.505 -18.371)"/><path d="M39.216,41H37.443a.443.443,0,0,0-.443.443v1.773a.443.443,0,0,0,.443.443h1.773a.443.443,0,0,0,.443-.443V41.443A.443.443,0,0,0,39.216,41Zm-.443,1.773h-.887v-.887h.887Z" transform="translate(-20.598 -22.825)"/><path d="M47.217,41H45.443a.443.443,0,0,0-.443.443v1.773a.443.443,0,0,0,.443.443h1.773a.443.443,0,0,0,.443-.443V41.443A.443.443,0,0,0,47.217,41Zm-.443,1.773h-.887v-.887h.887Z" transform="translate(-25.051 -22.825)"/><path d="M55.217,41H53.443a.443.443,0,0,0-.443.443v1.773a.443.443,0,0,0,.443.443h1.773a.443.443,0,0,0,.443-.443V41.443A.443.443,0,0,0,55.217,41Zm-.443,1.773h-.887v-.887h.887Z" transform="translate(-29.505 -22.825)"/><rect width="2.66" height="0.887" transform="translate(16.402 12.856)"/><rect width="2.66" height="0.887" transform="translate(19.949 12.856)"/><rect width="2.66" height="0.887" transform="translate(23.495 12.856)"/><path d="M30.33,55.66A1.33,1.33,0,1,0,29,54.33,1.332,1.332,0,0,0,30.33,55.66Zm0-1.773a.443.443,0,1,1-.443.443A.444.444,0,0,1,30.33,53.887Z" transform="translate(-16.144 -29.505)"/></g></g></svg>