<svg xmlns="http://www.w3.org/2000/svg" viewBox="-1385 271.351 52.282 52.282"><defs><style>.a{fill:#0e5a8d;}.b{fill:#fff;}</style></defs><g transform="translate(-1385 271.351)"><rect class="a" width="52.282" height="52.282" transform="translate(0)"/><g transform="translate(17.791 11.329)"><path class="b" d="M77.225,17.229h3.546v14.6a.522.522,0,0,0,.522.522H87.3a.522.522,0,0,0,.522-.522V17.3H91.9a.522.522,0,0,0,.518-.462l.619-5.374a.522.522,0,0,0-.518-.581h-4.7V7.511c0-1.016.547-1.53,1.625-1.53h3.07a.522.522,0,0,0,.522-.522V.526A.522.522,0,0,0,92.522,0H88.291c-.03,0-.1,0-.194,0a8.107,8.107,0,0,0-5.3,2A5.559,5.559,0,0,0,80.947,6.94v3.939H77.225a.522.522,0,0,0-.522.522v5.305A.522.522,0,0,0,77.225,17.229Z" transform="translate(-76.703)"/></g></g></svg>