<svg xmlns="http://www.w3.org/2000/svg" viewBox="-915 574.948 52 52">
  <defs>
    <style>
      .cls-1 {
        fill: #00c200;
      }

      .cls-2 {
        fill: #fff;
      }

      .cls-3 {
        fill: #00c500;
      }
    </style>
  </defs>
  <g id="icon-channel_line" transform="translate(-915 574.948)">
    <rect id="Rectangle_3807" data-name="Rectangle 3807" class="cls-1" width="52" height="52" transform="translate(0 0)"/>
    <g id="line" transform="translate(9.434 9.486)">
      <rect id="Rectangle_3808" data-name="Rectangle 3808" class="cls-1" width="33.054" height="33.054" rx="3"/>
      <g id="Group_9405" data-name="Group 9405" transform="translate(4.426 5.08)">
        <path id="Path_14506" data-name="Path 14506" class="cls-2" d="M85.123,80.894a6.048,6.048,0,0,0,.1-.732,9.21,9.21,0,0,0-.011-.94c-.294-5.107-5.592-9.175-12.085-9.175-6.681,0-12.1,4.308-12.1,9.622,0,4.885,4.576,8.919,10.5,9.54a.658.658,0,0,1,.584.727l-.252,2.272a.659.659,0,0,0,.943.665c5.009-2.417,8-4.9,9.792-7.058.325-.392,1.387-1.879,1.6-2.269A8.1,8.1,0,0,0,85.123,80.894Z" transform="translate(-61.025 -70.046)"/>
        <path id="Path_14507" data-name="Path 14507" class="cls-3" d="M120.277,169.846v-4.053a.619.619,0,0,0-.619-.619h0a.619.619,0,0,0-.619.619v4.672a.619.619,0,0,0,.619.619h2.475a.619.619,0,0,0,.619-.619h0a.619.619,0,0,0-.619-.619Z" transform="translate(-114.831 -158.274)"/>
        <path id="Path_14508" data-name="Path 14508" class="cls-3" d="M179.088,171.084h-.271a.484.484,0,0,1-.484-.484v-4.943a.484.484,0,0,1,.484-.484h.271a.484.484,0,0,1,.484.484V170.6A.484.484,0,0,1,179.088,171.084Z" transform="translate(-169.826 -158.274)"/>
        <path id="Path_14509" data-name="Path 14509" class="cls-3" d="M211.784,165.793v2.854s-2.471-3.223-2.509-3.266a.616.616,0,0,0-.485-.207.636.636,0,0,0-.595.644v4.646a.619.619,0,0,0,.619.619h0a.619.619,0,0,0,.619-.619v-2.837s2.509,3.252,2.546,3.286a.615.615,0,0,0,.419.169.641.641,0,0,0,.625-.644v-4.646a.619.619,0,0,0-.619-.619h0A.619.619,0,0,0,211.784,165.793Z" transform="translate(-197.521 -158.274)"/>
        <path id="Path_14510" data-name="Path 14510" class="cls-3" d="M291.251,165.793h0a.619.619,0,0,0-.619-.619h-2.475a.619.619,0,0,0-.619.619v4.672a.619.619,0,0,0,.619.619h2.475a.619.619,0,0,0,.619-.619h0a.619.619,0,0,0-.619-.619h-1.856v-1.1h1.856a.619.619,0,0,0,.619-.619h0a.619.619,0,0,0-.619-.619h-1.856v-1.1h1.856A.619.619,0,0,0,291.251,165.793Z" transform="translate(-271.109 -158.274)"/>
      </g>
    </g>
  </g>
</svg>
