<svg xmlns="http://www.w3.org/2000/svg" viewBox="-1016.32 381.339 14 14">
  <defs>
    <style>
      .cls-1 {
        fill: #4ea8e4;
      }
    </style>
  </defs>
  <path id="icon-edit" class="cls-1" d="M2443.68,8044.02a2.314,2.314,0,0,1-.168.875,2.22,2.22,0,0,1-.5.75l-9.007,9.005-4.328,1.079,1.078-4.328,9.007-9.006a2.231,2.231,0,0,1,.749-.5,2.357,2.357,0,0,1,.876-.167,2.194,2.194,0,0,1,.889.182,2.32,2.32,0,0,1,1.219,1.219,2.2,2.2,0,0,1,.182.889Zm-12.8,10.505,2.248-.56a2.212,2.212,0,0,0-1.688-1.688Zm1.023-3.04a3.116,3.116,0,0,1,2.01,2.01l7.4-7.4-2-2Zm10.029-6.009.329-.323a2.49,2.49,0,0,0,.28-.315,1.493,1.493,0,0,0,.2-.363,1.309,1.309,0,0,0,.07-.457,1.36,1.36,0,0,0-.112-.553,1.475,1.475,0,0,0-.756-.756,1.365,1.365,0,0,0-.553-.112,1.324,1.324,0,0,0-.455.071,1.466,1.466,0,0,0-.364.2,2.438,2.438,0,0,0-.315.28l-.322.33Z" transform="translate(-3446 -7660.39)"/>
</svg>
