<?xml version="1.0" encoding="UTF-8"?>
<!DOCTYPE svg PUBLIC "-//W3C//DTD SVG 1.1//EN" "http://www.w3.org/Graphics/SVG/1.1/DTD/svg11.dtd">
<!-- Creator: CorelDRAW -->
<svg xmlns="http://www.w3.org/2000/svg" xml:space="preserve" width="21cm" height="29.7cm" style="shape-rendering:geometricPrecision; text-rendering:geometricPrecision; image-rendering:optimizeQuality; fill-rule:evenodd; clip-rule:evenodd"
viewBox="0 0 21 29.7"
 xmlns:xlink="http://www.w3.org/1999/xlink">
 <defs>
  <style type="text/css">
   <![CDATA[
    .fil0 {fill:black}
   ]]>
  </style>
 </defs>
 <g id="Layer_x0020_1">
  <metadata id="CorelCorpID_0Corel-Layer"/>
  <g id="_214300544">
   <path id="_214300184" class="fil0" d="M10.5178 5.70511c2.14386,3.51694 5.11543,6.6011 8.82038,9.17772l-0.97791 -0.22562 -0.58232 -0.13172 -0.09412 0.60166 -1.35374 8.51955c-0.03291,0.18506 -0.1939,0.31997 -0.38189,0.31997 -0.00436,0 -0.00875,-9e-005 -0.01307,-0.00024l-10.8338 1e-005c-0.0003,0 -0.00069,0 -0.00104,0 -0.19035,0 -0.35476,-0.13345 -0.39386,-0.31972l-1.3353 -8.51934 -0.09412 -0.60166 -0.58297 0.13171 -0.99682 0.22563c3.70494,-2.57685 6.67652,-5.64232 8.82058,-9.17795m0 -0.71469c-0.00388,-9e-005 -0.00794,-0.00018 -0.0119,-0.00018 -0.1346,0 -0.25907,0.07178 -0.32652,0.18823 -2.31341,3.89317 -5.5293,7.10906 -9.55399,9.74197 -0.11683,0.07215 -0.18803,0.19976 -0.18803,0.33715 0,0.21832 0.17666,0.39557 0.39497,0.39624l1.97475 -0.45124 1.33526 8.51955c0.07083,0.45452 0.46257,0.79005 0.92272,0.79005 0.00582,0 0.01186,-0.00012 0.01756,-0.00012l10.8328 -4e-005c0.00108,0 0.00213,0 0.00317,0 0.46293,0 0.8589,-0.33374 0.93713,-0.78995l1.35375 -8.51955 1.9554 0.45124c0.21833,-0.00061 0.39499,-0.17786 0.39499,-0.39618 0,-0.13739 -0.0712,-0.265 -0.18808,-0.33712 -3.96751,-2.63294 -7.20231,-5.84883 -9.51549,-9.74203 -0.06742,-0.11642 -0.19189,-0.1882 -0.32648,-0.1882 -0.00396,0 -0.00802,9e-005 -0.01193,0.00018l-3e-005 0z"/>
  </g>
 </g>
</svg>
