<svg xmlns="http://www.w3.org/2000/svg" viewBox="-1074 505.75 45.25 45.25"><defs><style>.a,.c{fill:none;}.a{stroke:#000;}.b{stroke:none;}</style></defs><g transform="translate(-1181 312.75)"><g class="a" transform="translate(107 193)"><circle class="b" cx="22.625" cy="22.625" r="22.625"/><circle class="c" cx="22.625" cy="22.625" r="22.125"/></g><g transform="translate(116.85 201.512)"><g transform="translate(0 0)"><path class="a" d="M24.726,12.254A37.221,37.221,0,0,1,12.9.194a.481.481,0,0,0-.838,0A36.989,36.989,0,0,1,.235,12.254a.49.49,0,0,0,.256.908L2.936,12.6,4.589,23.149a1.156,1.156,0,0,0,1.164.978h13.41a1.177,1.177,0,0,0,1.164-.978L22,12.6l2.421.559A.493.493,0,0,0,24.726,12.254Z" transform="translate(-0.003 0.05)"/></g></g></g></svg>