<svg xmlns="http://www.w3.org/2000/svg" viewBox="-1286 357.951 43.343 42.049"><defs><style>.a{fill:#fff;}</style></defs><g transform="translate(-1595 140)"><path class="a" d="M21.715,1.539a66.147,66.147,0,0,0,19,19.769l-2.106-.486-1.256-.284-.2,1.3L34.232,40.185a.836.836,0,0,1-.851.689H10.048a.867.867,0,0,1-.851-.689L6.321,21.835l-.2-1.3-1.256.284-2.147.486a65.679,65.679,0,0,0,19-19.769m0-1.539a.813.813,0,0,0-.729.405A64.363,64.363,0,0,1,.407,21.389a.853.853,0,0,0,.446,1.58L5.106,22,7.982,40.347a2.011,2.011,0,0,0,2.025,1.7H33.341a2.048,2.048,0,0,0,2.025-1.7L38.283,22l4.213.972a.853.853,0,0,0,.446-1.58A65.326,65.326,0,0,1,22.444.405.813.813,0,0,0,21.715,0Z" transform="translate(308.997 217.951)"/></g></svg>