<svg xmlns="http://www.w3.org/2000/svg" viewBox="-983.822 641.43 52 52">
  <defs>
    <style>
      .cls-1, .cls-2 {
        fill: #2cb742;
      }

      .cls-2 {
        stroke: #fff;
        stroke-width: 2px;
      }

      .cls-3 {
        fill: #fff;
      }
    </style>
  </defs>
  <g id="icon-channel_wa" transform="translate(-983.822 641.43)">
    <rect id="Rectangle_3809" data-name="Rectangle 3809" class="cls-1" width="52" height="52" transform="translate(0 0)"/>
    <g id="whatsapp" transform="translate(9.693 8.711)">
      <path id="Path_14511" data-name="Path 14511" class="cls-2" d="M0,33.054l2.843-8.527a16.24,16.24,0,1,1,6.413,6.092Z"/>
      <path id="Path_14512" data-name="Path 14512" class="cls-3" d="M32.336,25.949c-.75-1.417-3.516-3.038-3.516-3.038-.626-.357-1.381-.4-1.738.239a14.326,14.326,0,0,1-1.127,1.233,2.1,2.1,0,0,1-2.987-.3L20.7,21.818,18.43,19.549a2.1,2.1,0,0,1-.3-2.987,14.325,14.325,0,0,1,1.233-1.127c.636-.357.6-1.112.239-1.738,0,0-1.621-2.766-3.038-3.516a1.554,1.554,0,0,0-1.825.275l-1,1c-3.178,3.178-1.613,6.766,1.565,9.945l2.9,2.9,2.9,2.9c3.178,3.178,6.766,4.743,9.945,1.565l1-1A1.555,1.555,0,0,0,32.336,25.949Z" transform="translate(-5.161 -4.301)"/>
    </g>
  </g>
</svg>
