<svg xmlns="http://www.w3.org/2000/svg" viewBox="-1029.924 286.704 17.009 22.16"><defs><style>.a{fill:#bcbcbc;}</style></defs><g transform="translate(-1029.924 286.704)"><path class="a" d="M67.525,10.145h1.228a6.067,6.067,0,0,0,10.478,1.847H80.81a.53.53,0,0,0,.53-.53V10.145h.239A1.044,1.044,0,0,0,82.622,9.1V6.435a1.045,1.045,0,0,0-.847-1.025,6.576,6.576,0,0,0-2.492-3.888A7.848,7.848,0,0,0,74.5,0c-3.674,0-6.572,2.176-7.28,5.437a1.045,1.045,0,0,0-.739,1V9.1A1.044,1.044,0,0,0,67.525,10.145Zm.017-1.061V6.452h1.143A6.078,6.078,0,0,0,68.5,9.085ZM74.5,13.2a5.014,5.014,0,1,1,4.193-2.271h-4.5a.53.53,0,1,0,0,1.061h3.569A4.988,4.988,0,0,1,74.5,13.2Zm5.779-2.271h-.362a6.036,6.036,0,0,0,.332-.786h.031v.786Zm1.282-1.847H80.505a6.079,6.079,0,0,0-.189-2.632h1.246V9.085ZM74.5,1.061a6.082,6.082,0,0,1,6.177,4.331h-.794a6.068,6.068,0,0,0-10.767,0h-.794A6.087,6.087,0,0,1,74.5,1.061Z" transform="translate(-65.992)"/><path class="a" d="M69.814,314.352h-10.9a3.057,3.057,0,0,0-3.053,3.053v4.081a.53.53,0,1,0,1.061,0v-4.081a2,2,0,0,1,1.992-1.992h10.9a2,2,0,0,1,1.993,1.992v4.081a.53.53,0,0,0,1.061,0v-4.081A3.057,3.057,0,0,0,69.814,314.352Z" transform="translate(-55.859 -299.855)"/></g></svg>