<svg xmlns="http://www.w3.org/2000/svg" viewBox="-1341.568 357.967 22 18"><defs><style>.a{fill:#4ea8e4;}</style></defs><g transform="translate(-1341.568 352.697)"><g transform="translate(0 5.27)"><path class="a" d="M14.376,12.406c-.521.178-5.121,1.783-6.132,2.966a3.123,3.123,0,0,0,.355,4.41,3.14,3.14,0,0,0,4.42-.353c1.01-1.185,1.864-5.971,1.958-6.513a.458.458,0,0,0-.6-.51Zm-2.056,6.43a2.284,2.284,0,0,1-3.128.249,2.211,2.211,0,0,1-.251-3.12c.567-.664,3.067-1.729,4.989-2.431C13.546,15.5,12.88,18.179,12.319,18.836ZM11,5.27A11.079,11.079,0,0,0,0,16.4a11.633,11.633,0,0,0,2.163,6.674.458.458,0,0,0,.374.194H19.463a.456.456,0,0,0,.374-.194A11.711,11.711,0,0,0,22,16.35,11.054,11.054,0,0,0,11,5.27Zm8.223,17.085H2.777A10.706,10.706,0,0,1,.916,16.4,10.163,10.163,0,0,1,11,6.184,10.136,10.136,0,0,1,21.082,16.35,10.792,10.792,0,0,1,19.223,22.355ZM11,7.9a7.762,7.762,0,0,0-7.724,7.783.458.458,0,0,0,.917,0,6.808,6.808,0,1,1,13.616-.025.458.458,0,0,0,.917,0A7.75,7.75,0,0,0,11,7.9Z" transform="translate(0 -5.27)"/></g></g></svg>