<svg xmlns="http://www.w3.org/2000/svg" viewBox="-1002.5 277.5 40.585 40.585"><defs><style>.a{fill:none;stroke:#63add7;}.b{fill:#63add7;}</style></defs><g transform="translate(-1019 214)"><g transform="translate(17 64)"><circle class="a" cx="19.792" cy="19.792" r="19.792"/></g><path class="b" d="M22.1,15.788l-3.516-1.758a.968.968,0,0,1-.538-.871V11.914c.084-.1.173-.22.265-.35A8.424,8.424,0,0,0,19.4,9.43,1.461,1.461,0,0,0,20.252,8.1V6.626a1.468,1.468,0,0,0-.368-.966V3.7a3.3,3.3,0,0,0-.77-2.4A4.633,4.633,0,0,0,15.466,0a4.634,4.634,0,0,0-3.647,1.3,3.3,3.3,0,0,0-.77,2.4V5.66a1.468,1.468,0,0,0-.368.966V8.1a1.464,1.464,0,0,0,.551,1.144,7.725,7.725,0,0,0,1.289,2.664v1.218a.973.973,0,0,1-.507.854L8.731,15.77A3.319,3.319,0,0,0,7,18.686v1.192c0,1.747,5.538,2.209,8.466,2.209s8.466-.462,8.466-2.209v-1.12A3.3,3.3,0,0,0,22.1,15.788Zm1.1,4.09c0,.5-2.728,1.472-7.73,1.472s-7.73-.973-7.73-1.472V18.686a2.583,2.583,0,0,1,1.347-2.269l3.284-1.791a1.709,1.709,0,0,0,.891-1.5V11.645l-.086-.1a6.949,6.949,0,0,1-1.255-2.6L11.883,8.8l-.126-.081a.734.734,0,0,1-.34-.617V6.626a.727.727,0,0,1,.247-.543l.121-.109V3.681l0-.048a2.556,2.556,0,0,1,.591-1.848A3.955,3.955,0,0,1,15.466.736a3.963,3.963,0,0,1,3.087,1.041,2.591,2.591,0,0,1,.6,1.856l0,2.341.121.11a.725.725,0,0,1,.247.543V8.1a.732.732,0,0,1-.523.7l-.183.056-.059.182a7.706,7.706,0,0,1-1.043,2.1,4.843,4.843,0,0,1-.308.4l-.092.1v1.518a1.7,1.7,0,0,0,.945,1.529l3.516,1.758A2.57,2.57,0,0,1,23.2,18.757Z" transform="translate(21.981 73.63)"/></g></svg>