<svg xmlns="http://www.w3.org/2000/svg" viewBox="-1000 424 24 20"><defs><style>.a{fill:#f6af28;}</style></defs><g transform="translate(-999.999 381.333)"><g transform="translate(-0.001 42.667)"><g transform="translate(0)"><path class="a" d="M23.728,50.736l-3.014-1.558,3.014-1.558a.5.5,0,0,0,.006-.887l-7.5-4.007a.5.5,0,0,0-.465,0L12,44.672,8.228,42.722a.5.5,0,0,0-.465,0l-7.5,4.007a.5.5,0,0,0,.006.887l3.014,1.558L.269,50.736a.5.5,0,0,0-.006.887l7.5,4.007a.5.5,0,0,0,.465,0L12,53.683l3.771,1.949a.5.5,0,0,0,.465,0l7.5-4.007a.5.5,0,0,0-.006-.887ZM12,52.556,5.464,49.178,12,45.8l6.535,3.378Z" transform="translate(0.001 -42.667)"/><path class="a" d="M92.592,308.013A.5.5,0,0,0,92.1,308l-2.083,1.077a1.523,1.523,0,0,1-1.394-.01L86.067,307.7a.5.5,0,0,0-.735.442v3.105a.5.5,0,0,0,.265.442l6.5,3.473a.5.5,0,0,0,.735-.442v-6.275A.5.5,0,0,0,92.592,308.013Z" transform="translate(-81.332 -295.217)"/><path class="a" d="M273.924,307.709a.5.5,0,0,0-.492-.013l-2.559,1.367a1.52,1.52,0,0,1-1.394.01L267.4,308a.5.5,0,0,0-.73.445v6.275a.5.5,0,0,0,.735.442l6.5-3.473a.5.5,0,0,0,.265-.442v-3.105A.5.5,0,0,0,273.924,307.709Z" transform="translate(-254.167 -295.217)"/></g></g></g></svg>