<svg xmlns="http://www.w3.org/2000/svg" viewBox="-1162.599 462 36.007 30">
  <defs>
    <style>
      .cls-1 {
        fill: #6cb1d9;
      }
    </style>
  </defs>
  <g id="icon-cart" transform="translate(-1162.599 456.994)">
    <path id="Path_9030" data-name="Path 9030" class="cls-1" d="M7.008,9.806l-.5-3H4.715a2.4,2.4,0,1,0,0,1.2h.776l.3,1.8H5.769l3.1,15.61A3.082,3.082,0,0,0,6.015,28.1,3.007,3.007,0,0,0,9,31.406h1.2a3.6,3.6,0,1,0,7.2,0H24a3.6,3.6,0,1,0,7.2,0h2.4a.6.6,0,0,0,0-1.2H30.99a3.594,3.594,0,0,0-6.78,0H17.19a3.594,3.594,0,0,0-6.78,0H9a1.806,1.806,0,0,1-1.334-.6,1.781,1.781,0,0,1-.457-1.39,1.88,1.88,0,0,1,1.9-1.614h.5l23.4-.008a3,3,0,0,0,2.993-2.992V9.8ZM2.4,8.606a1.2,1.2,0,1,1,1.2-1.2A1.2,1.2,0,0,1,2.4,8.606Zm25.2,20.4a2.4,2.4,0,1,1-2.4,2.4A2.4,2.4,0,0,1,27.6,29.006Zm-13.8,0a2.4,2.4,0,1,1-2.4,2.4A2.4,2.4,0,0,1,13.8,29.006ZM33.014,25.4l-22.922.007-.143-.719a.581.581,0,0,0-.209-1.053l-.511-2.572a.59.59,0,0,0,.379.145.6.6,0,1,0-.524-.877l-.924-4.651a.581.581,0,0,0-.208-1.044l-.51-2.566a.589.589,0,0,0,.365.136.6.6,0,1,0,0-1.2.593.593,0,0,0-.515.311l-.062-.311L34.807,11v1.808h0a.6.6,0,1,0,0,1.2h0v2.4h0a.6.6,0,1,0,0,1.2h0v2.4h0a.6.6,0,1,0,0,1.2h0v2.4h0a.6.6,0,0,0-.6.6.589.589,0,0,0,.239.467A1.787,1.787,0,0,1,33.014,25.4Z"/>
    <ellipse id="Ellipse_3498" data-name="Ellipse 3498" class="cls-1" cx="0.6" cy="0.6" rx="0.6" ry="0.6" transform="translate(19.807 12.806)"/>
    <ellipse id="Ellipse_3499" data-name="Ellipse 3499" class="cls-1" cx="0.6" cy="0.6" rx="0.6" ry="0.6" transform="translate(21.607 11.006)"/>
    <ellipse id="Ellipse_3500" data-name="Ellipse 3500" class="cls-1" cx="0.6" cy="0.6" rx="0.6" ry="0.6" transform="translate(21.607 14.606)"/>
    <ellipse id="Ellipse_3501" data-name="Ellipse 3501" class="cls-1" cx="0.6" cy="0.6" rx="0.6" ry="0.6" transform="translate(23.407 12.806)"/>
    <ellipse id="Ellipse_3502" data-name="Ellipse 3502" class="cls-1" cx="0.6" cy="0.6" rx="0.6" ry="0.6" transform="translate(16.207 12.806)"/>
    <ellipse id="Ellipse_3503" data-name="Ellipse 3503" class="cls-1" cx="0.6" cy="0.6" rx="0.6" ry="0.6" transform="translate(18.007 11.006)"/>
    <ellipse id="Ellipse_3504" data-name="Ellipse 3504" class="cls-1" cx="0.6" cy="0.6" rx="0.6" ry="0.6" transform="translate(18.007 14.606)"/>
    <ellipse id="Ellipse_3505" data-name="Ellipse 3505" class="cls-1" cx="0.6" cy="0.6" rx="0.6" ry="0.6" transform="translate(9.007 12.806)"/>
    <ellipse id="Ellipse_3506" data-name="Ellipse 3506" class="cls-1" cx="0.6" cy="0.6" rx="0.6" ry="0.6" transform="translate(12.607 12.806)"/>
    <ellipse id="Ellipse_3507" data-name="Ellipse 3507" class="cls-1" cx="0.6" cy="0.6" rx="0.6" ry="0.6" transform="translate(10.807 11.006)"/>
    <ellipse id="Ellipse_3508" data-name="Ellipse 3508" class="cls-1" cx="0.6" cy="0.6" rx="0.6" ry="0.6" transform="translate(14.407 11.006)"/>
    <ellipse id="Ellipse_3509" data-name="Ellipse 3509" class="cls-1" cx="0.6" cy="0.6" rx="0.6" ry="0.6" transform="translate(10.807 14.606)"/>
    <ellipse id="Ellipse_3510" data-name="Ellipse 3510" class="cls-1" cx="0.6" cy="0.6" rx="0.6" ry="0.6" transform="translate(14.407 14.606)"/>
    <ellipse id="Ellipse_3511" data-name="Ellipse 3511" class="cls-1" cx="0.6" cy="0.6" rx="0.6" ry="0.6" transform="translate(25.207 11.006)"/>
    <ellipse id="Ellipse_3512" data-name="Ellipse 3512" class="cls-1" cx="0.6" cy="0.6" rx="0.6" ry="0.6" transform="translate(25.207 14.606)"/>
    <ellipse id="Ellipse_3513" data-name="Ellipse 3513" class="cls-1" cx="0.6" cy="0.6" rx="0.6" ry="0.6" transform="translate(27.007 12.806)"/>
    <ellipse id="Ellipse_3514" data-name="Ellipse 3514" class="cls-1" cx="0.6" cy="0.6" rx="0.6" ry="0.6" transform="translate(30.607 12.806)"/>
    <ellipse id="Ellipse_3515" data-name="Ellipse 3515" class="cls-1" cx="0.6" cy="0.6" rx="0.6" ry="0.6" transform="translate(19.807 16.406)"/>
    <ellipse id="Ellipse_3516" data-name="Ellipse 3516" class="cls-1" cx="0.6" cy="0.6" rx="0.6" ry="0.6" transform="translate(23.407 16.406)"/>
    <ellipse id="Ellipse_3517" data-name="Ellipse 3517" class="cls-1" cx="0.6" cy="0.6" rx="0.6" ry="0.6" transform="translate(16.207 16.406)"/>
    <ellipse id="Ellipse_3518" data-name="Ellipse 3518" class="cls-1" cx="0.6" cy="0.6" rx="0.6" ry="0.6" transform="translate(9.007 16.406)"/>
    <ellipse id="Ellipse_3519" data-name="Ellipse 3519" class="cls-1" cx="0.6" cy="0.6" rx="0.6" ry="0.6" transform="translate(12.607 16.406)"/>
    <ellipse id="Ellipse_3520" data-name="Ellipse 3520" class="cls-1" cx="0.6" cy="0.6" rx="0.6" ry="0.6" transform="translate(27.007 16.406)"/>
    <ellipse id="Ellipse_3521" data-name="Ellipse 3521" class="cls-1" cx="0.6" cy="0.6" rx="0.6" ry="0.6" transform="translate(30.607 16.406)"/>
    <ellipse id="Ellipse_3522" data-name="Ellipse 3522" class="cls-1" cx="0.6" cy="0.6" rx="0.6" ry="0.6" transform="translate(28.807 11.006)"/>
    <ellipse id="Ellipse_3523" data-name="Ellipse 3523" class="cls-1" cx="0.6" cy="0.6" rx="0.6" ry="0.6" transform="translate(32.407 11.006)"/>
    <ellipse id="Ellipse_3524" data-name="Ellipse 3524" class="cls-1" cx="0.6" cy="0.6" rx="0.6" ry="0.6" transform="translate(28.807 14.606)"/>
    <ellipse id="Ellipse_3525" data-name="Ellipse 3525" class="cls-1" cx="0.6" cy="0.6" rx="0.6" ry="0.6" transform="translate(32.407 14.606)"/>
    <ellipse id="Ellipse_3526" data-name="Ellipse 3526" class="cls-1" cx="0.6" cy="0.6" rx="0.6" ry="0.6" transform="translate(19.807 20.006)"/>
    <ellipse id="Ellipse_3527" data-name="Ellipse 3527" class="cls-1" cx="0.6" cy="0.6" rx="0.6" ry="0.6" transform="translate(21.607 18.206)"/>
    <ellipse id="Ellipse_3528" data-name="Ellipse 3528" class="cls-1" cx="0.6" cy="0.6" rx="0.6" ry="0.6" transform="translate(21.607 21.806)"/>
    <ellipse id="Ellipse_3529" data-name="Ellipse 3529" class="cls-1" cx="0.6" cy="0.6" rx="0.6" ry="0.6" transform="translate(23.407 20.006)"/>
    <ellipse id="Ellipse_3530" data-name="Ellipse 3530" class="cls-1" cx="0.6" cy="0.6" rx="0.6" ry="0.6" transform="translate(16.207 20.006)"/>
    <ellipse id="Ellipse_3531" data-name="Ellipse 3531" class="cls-1" cx="0.6" cy="0.6" rx="0.6" ry="0.6" transform="translate(18.007 18.206)"/>
    <ellipse id="Ellipse_3532" data-name="Ellipse 3532" class="cls-1" cx="0.6" cy="0.6" rx="0.6" ry="0.6" transform="translate(18.007 21.806)"/>
    <ellipse id="Ellipse_3533" data-name="Ellipse 3533" class="cls-1" cx="0.6" cy="0.6" rx="0.6" ry="0.6" transform="translate(12.607 20.006)"/>
    <ellipse id="Ellipse_3534" data-name="Ellipse 3534" class="cls-1" cx="0.6" cy="0.6" rx="0.6" ry="0.6" transform="translate(10.807 18.206)"/>
    <ellipse id="Ellipse_3535" data-name="Ellipse 3535" class="cls-1" cx="0.6" cy="0.6" rx="0.6" ry="0.6" transform="translate(14.407 18.206)"/>
    <ellipse id="Ellipse_3536" data-name="Ellipse 3536" class="cls-1" cx="0.6" cy="0.6" rx="0.6" ry="0.6" transform="translate(10.807 21.806)"/>
    <ellipse id="Ellipse_3537" data-name="Ellipse 3537" class="cls-1" cx="0.6" cy="0.6" rx="0.6" ry="0.6" transform="translate(14.407 21.806)"/>
    <ellipse id="Ellipse_3538" data-name="Ellipse 3538" class="cls-1" cx="0.6" cy="0.6" rx="0.6" ry="0.6" transform="translate(25.207 18.206)"/>
    <ellipse id="Ellipse_3539" data-name="Ellipse 3539" class="cls-1" cx="0.6" cy="0.6" rx="0.6" ry="0.6" transform="translate(25.207 21.806)"/>
    <ellipse id="Ellipse_3540" data-name="Ellipse 3540" class="cls-1" cx="0.6" cy="0.6" rx="0.6" ry="0.6" transform="translate(27.007 20.006)"/>
    <ellipse id="Ellipse_3541" data-name="Ellipse 3541" class="cls-1" cx="0.6" cy="0.6" rx="0.6" ry="0.6" transform="translate(30.607 20.006)"/>
    <ellipse id="Ellipse_3542" data-name="Ellipse 3542" class="cls-1" cx="0.6" cy="0.6" rx="0.6" ry="0.6" transform="translate(19.807 23.606)"/>
    <ellipse id="Ellipse_3543" data-name="Ellipse 3543" class="cls-1" cx="0.6" cy="0.6" rx="0.6" ry="0.6" transform="translate(23.407 23.606)"/>
    <ellipse id="Ellipse_3544" data-name="Ellipse 3544" class="cls-1" cx="0.6" cy="0.6" rx="0.6" ry="0.6" transform="translate(16.207 23.606)"/>
    <ellipse id="Ellipse_3545" data-name="Ellipse 3545" class="cls-1" cx="0.6" cy="0.6" rx="0.6" ry="0.6" transform="translate(12.607 23.606)"/>
    <ellipse id="Ellipse_3546" data-name="Ellipse 3546" class="cls-1" cx="0.6" cy="0.6" rx="0.6" ry="0.6" transform="translate(27.007 23.606)"/>
    <ellipse id="Ellipse_3547" data-name="Ellipse 3547" class="cls-1" cx="0.6" cy="0.6" rx="0.6" ry="0.6" transform="translate(30.607 23.606)"/>
    <ellipse id="Ellipse_3548" data-name="Ellipse 3548" class="cls-1" cx="0.6" cy="0.6" rx="0.6" ry="0.6" transform="translate(28.807 18.206)"/>
    <ellipse id="Ellipse_3549" data-name="Ellipse 3549" class="cls-1" cx="0.6" cy="0.6" rx="0.6" ry="0.6" transform="translate(32.407 18.206)"/>
    <ellipse id="Ellipse_3550" data-name="Ellipse 3550" class="cls-1" cx="0.6" cy="0.6" rx="0.6" ry="0.6" transform="translate(28.807 21.806)"/>
    <ellipse id="Ellipse_3551" data-name="Ellipse 3551" class="cls-1" cx="0.6" cy="0.6" rx="0.6" ry="0.6" transform="translate(32.407 21.806)"/>
  </g>
</svg>
