<svg xmlns="http://www.w3.org/2000/svg" viewBox="-1034 462 24 22"><defs><style>.a{fill:#bcbcbc;}</style></defs><g transform="translate(-1034 459.5)"><path class="a" d="M30.406,19.655l-3.821-1.91A1.052,1.052,0,0,1,26,16.8V15.447c.092-.112.188-.24.288-.38a9.154,9.154,0,0,0,1.182-2.32A1.587,1.587,0,0,0,28.4,11.3V9.7A1.6,1.6,0,0,0,28,8.65V6.522a3.586,3.586,0,0,0-.837-2.61A5.035,5.035,0,0,0,23.2,2.5a5.036,5.036,0,0,0-3.963,1.412,3.586,3.586,0,0,0-.837,2.61V8.649A1.6,1.6,0,0,0,18,9.7v1.6a1.591,1.591,0,0,0,.6,1.244A8.4,8.4,0,0,0,20,15.438v1.324a1.057,1.057,0,0,1-.551.928l-3.568,1.946A3.606,3.606,0,0,0,14,22.8v1.7H32.4V22.882A3.59,3.59,0,0,0,30.406,19.655Z" transform="translate(-8.401)"/><path class="a" d="M7.193,23.31l3.568-1.946a.458.458,0,0,0,.238-.4V19.836a9.032,9.032,0,0,1-1.335-2.764A2.183,2.183,0,0,1,9,15.5V13.9a2.185,2.185,0,0,1,.4-1.256V10.75a4.172,4.172,0,0,1,.038-.958A5.556,5.556,0,0,0,7.6,9.5c-4.156,0-4.4,3.542-4.4,3.6v1.832a1.392,1.392,0,0,0-.4.932v1.382a1.427,1.427,0,0,0,.524,1.106,6.13,6.13,0,0,0,1.458,2.514v1.1a.869.869,0,0,1-.468.766L1.652,24.4A3.169,3.169,0,0,0,0,27.181V28.7H5V27A4.206,4.206,0,0,1,7.193,23.31Z" transform="translate(0 -4.2)"/></g></svg>