<svg xmlns="http://www.w3.org/2000/svg" viewBox="-1124 361 41.66 41.66"><defs><style>.a{fill:#fff;}</style></defs><g transform="translate(-1124 361)"><path class="a" d="M378.244,300.75a1.39,1.39,0,0,1,1.389,1.389.694.694,0,0,0,1.389,0,2.774,2.774,0,0,0-2.083-2.679v-.1a.694.694,0,1,0-1.389,0v.1a2.771,2.771,0,0,0,.694,5.456,1.389,1.389,0,1,1-1.389,1.389.694.694,0,1,0-1.389,0,2.774,2.774,0,0,0,2.083,2.679v.1a.694.694,0,1,0,1.389,0v-.1a2.771,2.771,0,0,0-.694-5.456,1.389,1.389,0,1,1,0-2.777Z" transform="translate(-344.916 -274.365)"/><path class="a" d="M346.194,172.056a.694.694,0,1,0,0-1.389h-4.166a.694.694,0,1,0,0,1.389Z" transform="translate(-313.56 -156.78)"/><path class="a" d="M255.1,359.094a.694.694,0,0,0-.694-.694h-6.249a.694.694,0,1,0,0,1.389h6.249A.694.694,0,0,0,255.1,359.094Z" transform="translate(-227.331 -329.238)"/><path class="a" d="M205.494,172.056h8.332a.694.694,0,1,0,0-1.389h-8.332a.694.694,0,1,0,0,1.389Z" transform="translate(-188.136 -156.78)"/><path class="a" d="M38.188,5.555h-24.3a.694.694,0,1,0,0,1.389h24.3a2.086,2.086,0,0,1,2.083,2.083V40.271H12.5V9.026a3.472,3.472,0,0,0-6.943,0V32.634a2.083,2.083,0,0,1-4.166,0V1.389H29.162V3.472a.694.694,0,1,0,1.389,0V.694A.694.694,0,0,0,29.856,0H.694A.7.7,0,0,0,0,.694V32.634a3.472,3.472,0,0,0,6.943,0V9.026a2.083,2.083,0,0,1,4.166,0v25.69H7.638a.694.694,0,1,0,0,1.389h3.472v4.86a.7.7,0,0,0,.694.694H40.966a.694.694,0,0,0,.694-.694V9.026A3.476,3.476,0,0,0,38.188,5.555Z"/><path class="a" d="M205.494,223.256h18.053a.694.694,0,1,0,0-1.389H205.494a.694.694,0,0,0,0,1.389Z" transform="translate(-188.136 -203.814)"/><path class="a" d="M248.161,409.6a.694.694,0,0,0,0,1.389h5.555a.694.694,0,0,0,0-1.389Z" transform="translate(-227.331 -376.272)"/><path class="a" d="M205.494,410.99h.694a.694.694,0,1,0,0-1.389h-.694a.694.694,0,1,0,0,1.389Z" transform="translate(-188.136 -376.273)"/><path class="a" d="M205.494,359.79h.694a.694.694,0,1,0,0-1.389h-.694a.694.694,0,1,0,0,1.389Z" transform="translate(-188.136 -329.239)"/><path class="a" d="M248.161,308.59h4.86a.694.694,0,1,0,0-1.389h-4.86a.694.694,0,0,0,0,1.389Z" transform="translate(-227.331 -282.205)"/><path class="a" d="M205.494,308.59h.694a.694.694,0,1,0,0-1.389h-.694a.694.694,0,0,0,0,1.389Z" transform="translate(-188.136 -282.205)"/></g></svg>