<svg xmlns="http://www.w3.org/2000/svg" viewBox="-1342.568 480 21 19.069"><defs><style>.a{fill:#63add7;}</style></defs><g transform="translate(-1342.568 457.5)"><g transform="translate(0 22.5)"><path class="a" d="M2.7,41.565H8.638a.39.39,0,1,0,0-.781H2.7A1.92,1.92,0,0,1,.781,38.866V26.559H3.433V28.2a.39.39,0,0,0,.781,0V26.559h5.2V28.2a.39.39,0,0,0,.781,0V26.559h2.652v.875a.39.39,0,0,0,.781,0V26.169a.392.392,0,0,0-.39-.39H10.2a3.378,3.378,0,0,0-6.754,0H.39a.392.392,0,0,0-.39.39v12.7A2.707,2.707,0,0,0,2.7,41.565ZM6.81,23.281a2.608,2.608,0,0,1,2.6,2.5h-5.2A2.6,2.6,0,0,1,6.81,23.281Z" transform="translate(0 -22.5)"/><path class="a" d="M234.472,159.859v.523H232.09a.392.392,0,0,0-.39.39v7.8a1.825,1.825,0,0,0,1.824,1.824h7.411a1.825,1.825,0,0,0,1.824-1.824v-7.8a.392.392,0,0,0-.391-.39h-2.381v-.524a2.757,2.757,0,1,0-5.514,0Zm7.5,1.3v7.411a1.044,1.044,0,0,1-1.043,1.043h-7.411a1.044,1.044,0,0,1-1.043-1.043v-7.411h1.991v1.094a.39.39,0,0,0,.781,0v-1.094h3.956v1.094a.39.39,0,0,0,.781,0v-1.094Zm-4.75-3.278a1.981,1.981,0,0,1,1.978,1.978v.523h-3.956v-.523A1.981,1.981,0,0,1,237.227,157.881Z" transform="translate(-221.758 -151.324)"/></g></g></svg>