<svg xmlns="http://www.w3.org/2000/svg" xmlns:xlink="http://www.w3.org/1999/xlink" viewBox="-1198.368 271.351 52.282 52.282"><defs><style>.a{fill:#f7f7f7;}.b{fill:url(#a);}.c{fill:url(#b);}.d{fill:url(#c);}</style><linearGradient id="a" x1="0.5" y1="0.008" x2="0.5" y2="0.998" gradientUnits="objectBoundingBox"><stop offset="0" stop-color="#e09b3d"/><stop offset="0.3" stop-color="#c74c4d"/><stop offset="0.6" stop-color="#c21975"/><stop offset="1" stop-color="#7024c4"/></linearGradient><linearGradient id="b" y1="-0.451" y2="1.462" xlink:href="#a"/><linearGradient id="c" y1="-1.396" y2="6.586" xlink:href="#a"/></defs><g transform="translate(-1198.368 271.351)"><rect class="a" width="52.282" height="52.282" transform="translate(0)"/><g transform="translate(9.855 10.23)"><path class="b" d="M22.711,0H9.637A9.648,9.648,0,0,0,0,9.637V22.711a9.648,9.648,0,0,0,9.637,9.637H22.711a9.648,9.648,0,0,0,9.637-9.637V9.637A9.648,9.648,0,0,0,22.711,0Zm6.382,22.711a6.382,6.382,0,0,1-6.382,6.382H9.637a6.382,6.382,0,0,1-6.382-6.382V9.637A6.382,6.382,0,0,1,9.637,3.254H22.711a6.382,6.382,0,0,1,6.382,6.382V22.711Z"/><path class="c" d="M141.366,133a8.366,8.366,0,1,0,8.366,8.366A8.376,8.376,0,0,0,141.366,133Zm0,13.478a5.112,5.112,0,1,1,5.112-5.112A5.112,5.112,0,0,1,141.366,146.478Z" transform="translate(-125.192 -125.192)"/><circle class="d" cx="2.005" cy="2.005" r="2.005" transform="translate(22.552 5.866)"/></g></g></svg>