<svg xmlns="http://www.w3.org/2000/svg" viewBox="-1286 505.24 42.855 41.487"><g transform="translate(-1286 498.807)"><g transform="translate(31.415 24.999)"><path d="M301.74,181.025h-5.771a.514.514,0,0,0-.544.544v10.562a.514.514,0,0,0,.544.544h5.826a.514.514,0,0,0,.545-.544V181.569A.594.594,0,0,0,301.74,181.025Zm-.545,10.562h-4.737v-9.473H301.2Z" transform="translate(-295.424 -181.025)"/></g><g transform="translate(4.464 40.134)"><path d="M48.463,323.361H42.528a.514.514,0,0,0-.544.544V328.1a.514.514,0,0,0,.544.544h5.934a.514.514,0,0,0,.544-.544v-4.192A.514.514,0,0,0,48.463,323.361Zm-.544,4.192H43.073v-3.1h4.846Z" transform="translate(-41.984 -323.361)"/></g><g transform="translate(12.468 40.134)"><path d="M123.727,323.361h-5.934a.514.514,0,0,0-.544.544V328.1a.514.514,0,0,0,.544.544h5.934a.514.514,0,0,0,.544-.544v-4.192A.546.546,0,0,0,123.727,323.361Zm-.544,4.192h-4.846v-3.1h4.846Z" transform="translate(-117.248 -323.361)"/></g><g transform="translate(20.362 40.134)"><path d="M197.967,323.361h-5.934a.514.514,0,0,0-.544.544V328.1a.514.514,0,0,0,.544.544h5.934a.514.514,0,0,0,.544-.544v-4.192A.514.514,0,0,0,197.967,323.361Zm-.544,4.192h-4.846v-3.1h4.846Z" transform="translate(-191.488 -323.361)"/></g><g transform="translate(0 6.433)"><path d="M42.358,6.433H.544A.514.514,0,0,0,0,6.977v3.484a.514.514,0,0,0,.544.544H1.96V47.375a.514.514,0,0,0,.544.544H40.343a.514.514,0,0,0,.544-.544V11.006H42.3a.514.514,0,0,0,.544-.544V6.977A.5.5,0,0,0,42.358,6.433ZM28.8,46.776H3.049V38.664H28.8Zm0-9.2H3.049V23.42H28.8Zm0-15.244H3.049V17.7H28.8Zm11,24.5H29.89V23.42H39.8Zm0-24.5H29.89V17.7H39.8Zm.054-5.717H3.049V11.006h36.8Zm1.96-6.7H1.089v-2.4H41.813Z" transform="translate(0 -6.433)"/></g><g transform="translate(31.469 37.521)"><ellipse cx="0.599" cy="0.599" rx="0.599" ry="0.599"/></g><g transform="translate(4.954 32.512)"><path d="M49.532,253.859l-2.014-2.014a.539.539,0,1,0-.762.762l2.014,2.014a.588.588,0,0,0,.381.163.494.494,0,0,0,.381-.163A.526.526,0,0,0,49.532,253.859Z" transform="translate(-46.592 -251.681)"/></g><g transform="translate(5.39 30.062)"><path d="M55.7,232.888,51.614,228.8a.539.539,0,0,0-.762.762l4.083,4.083a.588.588,0,0,0,.381.163.494.494,0,0,0,.381-.163A.526.526,0,0,0,55.7,232.888Z" transform="translate(-50.688 -228.641)"/></g></g></svg>