<svg xmlns="http://www.w3.org/2000/svg" viewBox="-1247 580 147 147"><defs><style>.a{fill:#190808;}.b,.d{fill:none;}.b{stroke:#000;}.c{stroke:none;}</style></defs><path class="a" d="M83.369,67.495,68.892,60.257a3.986,3.986,0,0,1-2.214-3.584V51.55c.347-.424.712-.908,1.09-1.441a34.682,34.682,0,0,0,4.477-8.788,6.013,6.013,0,0,0,3.526-5.481V29.778A6.043,6.043,0,0,0,74.255,25.8V17.739a13.585,13.585,0,0,0-3.17-9.888C67.973,4.3,62.922,2.5,56.07,2.5s-11.9,1.8-15.015,5.349a13.162,13.162,0,0,0-3.128,7.282,19.683,19.683,0,0,0-9.135-2.023c-15.744,0-16.661,13.419-16.67,13.639v6.939a5.275,5.275,0,0,0-1.515,3.531v5.234a5.408,5.408,0,0,0,1.987,4.19,23.225,23.225,0,0,0,5.522,9.524v4.157a3.292,3.292,0,0,1-1.775,2.9L6.26,69.548A12.008,12.008,0,0,0,0,80.094v5.754H90.925V79.721A13.6,13.6,0,0,0,83.369,67.495ZM21.216,79.426v3.391H3.031V80.094a9.02,9.02,0,0,1,4.76-7.93L17.871,65.84a6.279,6.279,0,0,0,3.275-5.518V54.88l-.482-.45a20.187,20.187,0,0,1-5.255-9.024l-.138-.6-.518-.333a2.408,2.408,0,0,1-1.114-2.022V37.217a2.649,2.649,0,0,1,1.017-1.779l.5-.45,0-8.153c.027-.435.817-10.7,13.642-10.7a15.777,15.777,0,0,1,9.093,2.491V25.8a6.043,6.043,0,0,0-1.515,3.978v6.062a6.094,6.094,0,0,0,.153,1.353c.041.176.123.336.179.506a5.985,5.985,0,0,0,.267.758l0,.008a6.071,6.071,0,0,0,1.665,2.087c.008.029.017.055.024.082.091.347.186.693.289,1.03l.123.4c.021.07.047.141.07.211.053.164.1.326.159.486.091.265.186.539.3.838.047.124.1.236.147.359.124.317.249.623.379.926.032.073.059.152.091.223l.085.191c.039.088.08.167.12.253.149.324.294.638.446.941.024.048.047.1.071.15.1.189.191.368.286.55.164.312.324.606.485.891.079.139.156.276.233.408.218.373.426.715.627,1.034.044.068.086.139.129.2.367.568.685,1.029.949,1.388l.189.258c.033.044.079.108.108.147v5.015a4,4,0,0,1-2.087,3.516l-4.01,2.187-.7-.062-.285.6L28.34,67.42A13.671,13.671,0,0,0,21.216,79.426Zm66.678,3.391H24.247V79.426a10.633,10.633,0,0,1,5.545-9.341l13.519-7.374a7.037,7.037,0,0,0,3.667-6.178v-6.09l-.294-.352-.058-.068s-.1-.118-.25-.318c-.009-.012-.018-.024-.029-.036-.08-.1-.174-.23-.282-.38l0-.008c-.226-.314-.509-.721-.824-1.212-.008-.011-.014-.023-.021-.033-.149-.232-.306-.485-.467-.753-.012-.02-.024-.039-.036-.061-.342-.574-.706-1.224-1.068-1.944a.005.005,0,0,1,0,0c-.192-.386-.385-.793-.573-1.215h0c-.026-.059-.053-.117-.079-.176h0c-.083-.189-.167-.388-.252-.593-.03-.074-.061-.152-.091-.227-.079-.2-.159-.4-.244-.627-.155-.412-.3-.843-.439-1.287l-.083-.27c-.009-.03-.02-.061-.029-.092-.142-.479-.279-.968-.394-1.471l-.138-.6-.517-.333a3.021,3.021,0,0,1-1.4-2.541V29.778a2.991,2.991,0,0,1,1.015-2.235l.5-.45V17.118l-.041-.032a10.49,10.49,0,0,1,2.46-7.238c2.511-2.866,6.8-4.317,12.736-4.317,5.918,0,10.194,1.441,12.708,4.286a10.666,10.666,0,0,1,2.46,7.639l-.014,9.637.5.452a2.985,2.985,0,0,1,1.015,2.234v6.062a3.014,3.014,0,0,1-2.155,2.878l-.755.232-.242.75a31.724,31.724,0,0,1-4.295,8.658,19.94,19.94,0,0,1-1.268,1.635l-.377.43v6.251a7,7,0,0,0,3.889,6.294L82.013,70.2a10.581,10.581,0,0,1,5.881,9.517Z" transform="translate(-1219.925 611.432)"/><g class="b" transform="translate(-1247 580)"><circle class="c" cx="73.5" cy="73.5" r="73.5"/><circle class="d" cx="73.5" cy="73.5" r="73"/></g></svg>