<svg xmlns="http://www.w3.org/2000/svg" viewBox="-1384.569 439 21 21"><defs><style>.a{fill:#bcbcbc;}</style></defs><g transform="translate(-1384.569 439)"><path class="a" d="M20.016,3.281A.986.986,0,0,0,21,2.3V.984A.986.986,0,0,0,20.016,0H13.453a.986.986,0,0,0-.984.984V2.3a.986.986,0,0,0,.984.984h2.953v.984H7.219V1.313a.328.328,0,0,0-.475-.294l-.51.255-.51-.255a.328.328,0,0,0-.294,0l-.509.255-.51-.255a.328.328,0,0,0-.294,0l-.509.255L3.1,1.019a.328.328,0,0,0-.475.294V4.266H.328A.328.328,0,0,0,0,4.594V19.36A1.643,1.643,0,0,0,1.641,21H19.36A1.643,1.643,0,0,0,21,19.36V4.594a.328.328,0,0,0-.328-.328H17.063V3.281ZM7.219,6.235a.328.328,0,0,1,0,.656ZM3.281,1.843l.181.091a.328.328,0,0,0,.294,0l.509-.255.51.255a.328.328,0,0,0,.294,0l.509-.255.51.255a.328.328,0,0,0,.294,0l.181-.091V6.891H3.281ZM2.3,6.563a.329.329,0,0,1,.328-.328v.656A.329.329,0,0,1,2.3,6.563Zm18.047,12.8a.986.986,0,0,1-.984.984H1.641a.986.986,0,0,1-.984-.984V16.735H20.344Zm0-3.281H.656V4.922H2.625v.656a.984.984,0,1,0,0,1.969H7.219a.984.984,0,0,0,0-1.969V4.922H20.344ZM13.125,2.3V.984a.329.329,0,0,1,.328-.328h6.563a.329.329,0,0,1,.328.328V2.3a.329.329,0,0,1-.328.328H13.453A.329.329,0,0,1,13.125,2.3Z"/><path class="a" d="M36.328,20.281h7.219a.328.328,0,0,0,.328-.328V17.328A.328.328,0,0,0,43.547,17H36.328a.328.328,0,0,0-.328.328v2.625A.328.328,0,0,0,36.328,20.281Zm.328-2.625h6.563v1.969H36.656Z" transform="translate(-24.187 -11.422)"/><path class="a" d="M5.969,25H4.328A.328.328,0,0,0,4,25.328v1.313a.328.328,0,0,0,.328.328H5.969a.328.328,0,0,0,.328-.328V25.328A.328.328,0,0,0,5.969,25Zm-.328,1.313H4.656v-.656h.984Z" transform="translate(-2.687 -16.797)"/><path class="a" d="M14.969,25H13.328a.328.328,0,0,0-.328.328v1.313a.328.328,0,0,0,.328.328h1.641a.328.328,0,0,0,.328-.328V25.328A.328.328,0,0,0,14.969,25Zm-.328,1.313h-.984v-.656h.984Z" transform="translate(-8.734 -16.797)"/><path class="a" d="M22,25.328v1.313a.328.328,0,0,0,.328.328h1.641a.328.328,0,0,0,.328-.328V25.328A.328.328,0,0,0,23.969,25H22.328A.328.328,0,0,0,22,25.328Zm.656.328h.984v.656h-.984Z" transform="translate(-14.781 -16.797)"/><path class="a" d="M5.969,33H4.328A.328.328,0,0,0,4,33.328v1.313a.328.328,0,0,0,.328.328H5.969a.328.328,0,0,0,.328-.328V33.328A.328.328,0,0,0,5.969,33Zm-.328,1.313H4.656v-.656h.984Z" transform="translate(-2.687 -22.172)"/><path class="a" d="M14.969,33H13.328a.328.328,0,0,0-.328.328v1.313a.328.328,0,0,0,.328.328h1.641a.328.328,0,0,0,.328-.328V33.328A.328.328,0,0,0,14.969,33Zm-.328,1.313h-.984v-.656h.984Z" transform="translate(-8.734 -22.172)"/><path class="a" d="M23.969,33H22.328a.328.328,0,0,0-.328.328v1.313a.328.328,0,0,0,.328.328h1.641a.328.328,0,0,0,.328-.328V33.328A.328.328,0,0,0,23.969,33Zm-.328,1.313h-.984v-.656h.984Z" transform="translate(-14.781 -22.172)"/><path class="a" d="M5.969,41H4.328A.328.328,0,0,0,4,41.328v1.313a.328.328,0,0,0,.328.328H5.969a.328.328,0,0,0,.328-.328V41.328A.328.328,0,0,0,5.969,41Zm-.328,1.313H4.656v-.656h.984Z" transform="translate(-2.687 -27.547)"/><path class="a" d="M14.969,41H13.328a.328.328,0,0,0-.328.328v1.313a.328.328,0,0,0,.328.328h1.641a.328.328,0,0,0,.328-.328V41.328A.328.328,0,0,0,14.969,41Zm-.328,1.313h-.984v-.656h.984Z" transform="translate(-8.734 -27.547)"/><path class="a" d="M23.969,41H22.328a.328.328,0,0,0-.328.328v1.313a.328.328,0,0,0,.328.328h1.641a.328.328,0,0,0,.328-.328V41.328A.328.328,0,0,0,23.969,41Zm-.328,1.313h-.984v-.656h.984Z" transform="translate(-14.781 -27.547)"/><path class="a" d="M38.641,33H37.328a.328.328,0,0,0-.328.328v1.313a.328.328,0,0,0,.328.328h1.313a.328.328,0,0,0,.328-.328V33.328A.328.328,0,0,0,38.641,33Zm-.328,1.313h-.656v-.656h.656Z" transform="translate(-24.859 -22.172)"/><path class="a" d="M46.641,33H45.328a.328.328,0,0,0-.328.328v1.313a.328.328,0,0,0,.328.328h1.313a.328.328,0,0,0,.328-.328V33.328A.328.328,0,0,0,46.641,33Zm-.328,1.313h-.656v-.656h.656Z" transform="translate(-30.234 -22.172)"/><path class="a" d="M54.641,33H53.328a.328.328,0,0,0-.328.328v1.313a.328.328,0,0,0,.328.328h1.313a.328.328,0,0,0,.328-.328V33.328A.328.328,0,0,0,54.641,33Zm-.328,1.313h-.656v-.656h.656Z" transform="translate(-35.609 -22.172)"/><path class="a" d="M38.641,41H37.328a.328.328,0,0,0-.328.328v1.313a.328.328,0,0,0,.328.328h1.313a.328.328,0,0,0,.328-.328V41.328A.328.328,0,0,0,38.641,41Zm-.328,1.313h-.656v-.656h.656Z" transform="translate(-24.859 -27.547)"/><path class="a" d="M46.641,41H45.328a.328.328,0,0,0-.328.328v1.313a.328.328,0,0,0,.328.328h1.313a.328.328,0,0,0,.328-.328V41.328A.328.328,0,0,0,46.641,41Zm-.328,1.313h-.656v-.656h.656Z" transform="translate(-30.234 -27.547)"/><path class="a" d="M54.641,41H53.328a.328.328,0,0,0-.328.328v1.313a.328.328,0,0,0,.328.328h1.313a.328.328,0,0,0,.328-.328V41.328A.328.328,0,0,0,54.641,41Zm-.328,1.313h-.656v-.656h.656Z" transform="translate(-35.609 -27.547)"/><rect class="a" width="1.969" height="0.656" transform="translate(12.141 9.516)"/><rect class="a" width="1.969" height="0.656" transform="translate(14.766 9.516)"/><rect class="a" width="1.969" height="0.656" transform="translate(17.391 9.516)"/><path class="a" d="M29.984,54.969A.984.984,0,1,0,29,53.984.986.986,0,0,0,29.984,54.969Zm0-1.313a.328.328,0,1,1-.328.328A.329.329,0,0,1,29.984,53.656Z" transform="translate(-19.484 -35.609)"/></g></svg>