<svg xmlns="http://www.w3.org/2000/svg" viewBox="-1082.039 607.812 80.197 80.199">
  <defs>
    <style>
      .cls-1 {
        fill: #3db39e;
      }
    </style>
  </defs>
  <g id="icon-suksestransaksi" transform="translate(-1082.039 607.812)">
    <path id="Path_12699" data-name="Path 12699" class="cls-1" d="M40.1,0A40.1,40.1,0,1,0,80.2,40.1,40.1,40.1,0,0,0,40.1,0Zm0,72.68A32.581,32.581,0,1,1,72.682,40.1,32.58,32.58,0,0,1,40.1,72.68ZM55.863,23.042A3.491,3.491,0,0,0,51,24.4L37.555,48.548l-7.489-9.115c-1.356-1.561-3.158-2.371-4.86-1.353A3.706,3.706,0,0,0,23.9,43.127L34.322,55.811a4.4,4.4,0,0,0,2.6,1.792l.008.015.1.005c.211.033,3.358.614,4.714-1.812L57.172,28.09A3.776,3.776,0,0,0,55.863,23.042Z" transform="translate(-0.004)"/>
  </g>
</svg>
