<svg xmlns="http://www.w3.org/2000/svg" viewBox="-1063 289.05 22.463 18.451"><defs><style>.a{fill:#95989a;}</style></defs><g transform="translate(-1063 283.776)"><path class="a" d="M4.293,23.658a.38.38,0,1,0,.474-.595,10.411,10.411,0,0,1-.877-.784L1.076,19.465l2.9-2.9a10.27,10.27,0,0,1,10.591-2.486.381.381,0,0,0,.242-.722A11.027,11.027,0,0,0,3.441,16.025L0,19.465l3.352,3.352A11.23,11.23,0,0,0,4.293,23.658Z" transform="translate(0 -4.645)"/><path class="a" d="M30.822,18.98A11.174,11.174,0,0,0,29.151,17.6a.381.381,0,0,0-.424.632,10.4,10.4,0,0,1,1.557,1.282L33.1,22.332l-2.9,2.9A10.37,10.37,0,0,1,19.41,27.652a.38.38,0,1,0-.257.716,11.128,11.128,0,0,0,11.58-2.6l3.44-3.44Z" transform="translate(-11.711 -7.6)"/><path class="a" d="M25.831,29.726a4.365,4.365,0,0,1-2.309-.658.38.38,0,1,0-.4.646A5.136,5.136,0,0,0,30.1,22.5a.38.38,0,1,0-.632.423,4.376,4.376,0,0,1-3.638,6.806Z" transform="translate(-14.214 -10.566)"/><path class="a" d="M22.174,17.535a4.368,4.368,0,0,1,2.227.609.38.38,0,0,0,.388-.655,5.138,5.138,0,0,0-7.228,6.681.38.38,0,1,0,.683-.335A4.334,4.334,0,0,1,17.8,21.91,4.381,4.381,0,0,1,22.174,17.535Z" transform="translate(-10.556 -7.125)"/><path class="a" d="M24.753,5.385a.38.38,0,0,0-.538,0L6.525,23.075a.38.38,0,1,0,.538.538l17.69-17.69A.38.38,0,0,0,24.753,5.385Z" transform="translate(-3.974)"/></g></svg>