<svg xmlns="http://www.w3.org/2000/svg" viewBox="-1341.569 519 21 20.821"><defs><style>.a{fill:#63add7;}</style></defs><g transform="translate(-1341.569 517.919)"><path class="a" d="M20.5,14.851H18.355V10.939a7.792,7.792,0,0,0-7.3-7.767V1.579a.5.5,0,1,0-1,0V3.166a7.791,7.791,0,0,0-7.411,7.773v2.544a.5.5,0,1,0,1,0V10.939a6.794,6.794,0,0,1,6.786-6.786h.147a6.794,6.794,0,0,1,6.786,6.786v3.912H.5a.5.5,0,0,0-.5.5v2.887a.5.5,0,0,0,.5.5h20a.5.5,0,0,0,.5-.5V15.349A.5.5,0,0,0,20.5,14.851ZM20,17.738H1V15.847H20Z" transform="translate(0 0)"/><path class="a" d="M102.989,218.571a.5.5,0,0,0-.5.5,1.281,1.281,0,0,1-1.28,1.28h-.036a1.281,1.281,0,0,1-1.279-1.28.5.5,0,0,0-1,0,2.278,2.278,0,0,0,2.275,2.275h.036a2.278,2.278,0,0,0,2.275-2.275A.5.5,0,0,0,102.989,218.571Z" transform="translate(-90.693 -199.442)"/></g></svg>