<svg xmlns="http://www.w3.org/2000/svg" viewBox="-1412 574 147 147"><defs><style>.a,.c{fill:none;}.a{stroke:#000;}.b{stroke:none;}</style></defs><g transform="translate(-123 -5)"><g class="a" transform="translate(-1289 579)"><circle class="b" cx="73.5" cy="73.5" r="73.5"/><circle class="c" cx="73.5" cy="73.5" r="73"/></g><g transform="translate(-1263.003 606.951)"><path d="M46.913,3.326C56.89,19.693,70.719,34.046,87.961,46.037l-4.551-1.05L80.7,44.374l-.438,2.8-6.3,39.648a1.805,1.805,0,0,1-1.838,1.488H21.706a1.873,1.873,0,0,1-1.838-1.488L13.654,47.175l-.438-2.8-2.713.613-4.639,1.05C23.106,34.046,36.935,19.78,46.913,3.326m0-3.326a1.756,1.756,0,0,0-1.575.875C34.572,18.993,19.606,33.959.876,46.212a1.844,1.844,0,0,0,.963,3.413l9.19-2.1,6.214,39.648a4.346,4.346,0,0,0,4.376,3.676H72.032a4.425,4.425,0,0,0,4.376-3.676l6.3-39.648,9.1,2.1a1.844,1.844,0,0,0,.963-3.413C74.307,33.959,59.253,18.993,48.488.875A1.756,1.756,0,0,0,46.913,0Z" transform="translate(0)"/></g></g></svg>