<svg xmlns="http://www.w3.org/2000/svg" viewBox="-1072 362 45.879 41.66"><defs><style>.a{fill:#fff;}</style></defs><g transform="translate(-1072 362)"><path class="a" d="M5.9,64.151H18.871a.853.853,0,0,0,0-1.706H5.9a4.2,4.2,0,0,1-4.19-4.19V31.368H7.5v3.59a.853.853,0,0,0,1.706,0v-3.59H20.568v3.59a.853.853,0,0,0,1.706,0v-3.59h5.793v1.912a.853.853,0,1,0,1.706,0V30.515a.856.856,0,0,0-.853-.853H22.274a7.381,7.381,0,0,0-14.755,0H.853A.856.856,0,0,0,0,30.515V58.254A5.913,5.913,0,0,0,5.9,64.151Zm8.981-39.944a5.7,5.7,0,0,1,5.681,5.465H9.206A5.682,5.682,0,0,1,14.877,24.206Z" transform="translate(0 -22.5)"/><path class="a" d="M237.756,163.128v1.144h-5.2a.856.856,0,0,0-.853.853v17.033a3.987,3.987,0,0,0,3.984,3.984h16.19a3.987,3.987,0,0,0,3.984-3.984V165.115a.856.856,0,0,0-.853-.853h-5.2v-1.144a6.023,6.023,0,1,0-12.046.009Zm16.4,2.84v16.19a2.28,2.28,0,0,1-2.278,2.278h-16.19a2.28,2.28,0,0,1-2.278-2.278v-16.19h4.35v2.391a.853.853,0,0,0,1.706,0v-2.39h8.643v2.39a.853.853,0,0,0,1.706,0v-2.39Zm-10.377-7.162a4.329,4.329,0,0,1,4.322,4.322v1.144h-8.643v-1.144A4.329,4.329,0,0,1,243.774,158.806Z" transform="translate(-209.979 -144.482)"/></g></svg>