<svg xmlns="http://www.w3.org/2000/svg" viewBox="-983.688 574.962 52 52">
  <defs>
    <style>
      .cls-1 {
        fill: #919191;
      }

      .cls-2 {
        fill: none;
        stroke: #fff;
      }
    </style>
  </defs>
  <g id="icon-channel_toko" transform="translate(-1039.555 13)">
    <rect id="Rectangle_4331" data-name="Rectangle 4331" class="cls-1" width="52" height="52" transform="translate(55.867 561.962)"/>
    <g id="Group_9188" data-name="Group 9188" transform="translate(70.823 575.815)">
      <g id="Group_7877" data-name="Group 7877" transform="translate(0 0)">
        <path id="Path_13796" data-name="Path 13796" class="cls-2" d="M21.67,10.733A32.62,32.62,0,0,1,11.305.164a.422.422,0,0,0-.734,0A32.417,32.417,0,0,1,.206,10.733a.43.43,0,0,0,.224.8l2.142-.49,1.449,9.242a1.013,1.013,0,0,0,1.02.857H16.794a1.031,1.031,0,0,0,1.02-.857l1.469-9.242,2.122.49A.432.432,0,0,0,21.67,10.733Z" transform="translate(-0.003 0.05)"/>
      </g>
    </g>
    <path id="Path_15491" data-name="Path 15491" class="cls-2" d="M16.3.5A15.8,15.8,0,1,1,.5,16.3,15.8,15.8,0,0,1,16.3.5Z" transform="translate(65.583 571.635)"/>
  </g>
</svg>
