<svg xmlns="http://www.w3.org/2000/svg" viewBox="-1232.505 358.007 45.443 41.656"><defs><style>.a{fill:#fff;}</style></defs><path class="a" d="M41.667,34.983l-7.235-3.617a1.992,1.992,0,0,1-1.107-1.791V27.014c.173-.212.356-.454.545-.72A17.334,17.334,0,0,0,36.107,21.9a3.005,3.005,0,0,0,1.762-2.739v-3.03a3.02,3.02,0,0,0-.757-1.988V10.116a6.79,6.79,0,0,0-1.584-4.942C33.972,3.4,31.447,2.5,28.023,2.5s-5.948.9-7.5,2.674a6.578,6.578,0,0,0-1.563,3.639A9.837,9.837,0,0,0,14.39,7.8c-7.868,0-8.327,6.707-8.331,6.816v3.468A2.636,2.636,0,0,0,5.3,19.851v2.616a2.7,2.7,0,0,0,.993,2.094,11.608,11.608,0,0,0,2.76,4.76V31.4a1.645,1.645,0,0,1-.887,1.45L3.129,36.01A6,6,0,0,0,0,41.28v2.876H45.443V41.094A6.8,6.8,0,0,0,41.667,34.983ZM10.6,40.946v1.7H1.515V41.28a4.508,4.508,0,0,1,2.379-3.963l5.038-3.161A3.138,3.138,0,0,0,10.568,31.4v-2.72l-.241-.225A10.089,10.089,0,0,1,7.7,23.944l-.069-.3-.259-.167a1.2,1.2,0,0,1-.557-1.01V19.851a1.324,1.324,0,0,1,.508-.889l.249-.225,0-4.075c.014-.217.408-5.346,6.818-5.346a7.885,7.885,0,0,1,4.544,1.245v3.583a3.02,3.02,0,0,0-.757,1.988v3.03a3.046,3.046,0,0,0,.076.676c.02.088.061.168.089.253a2.992,2.992,0,0,0,.133.379l0,0a3.034,3.034,0,0,0,.832,1.043c0,.014.008.027.012.041.045.173.093.346.145.515l.061.2c.011.035.023.07.035.105.027.082.052.163.08.243.045.133.093.27.148.419.023.062.049.118.073.179.062.158.124.311.189.463.016.036.03.076.045.111l.042.1c.02.044.04.083.06.126.074.162.147.319.223.47.012.024.023.051.036.075.048.095.1.184.143.275.082.156.162.3.242.445.039.07.078.138.117.2.109.186.213.357.314.517.022.034.043.07.064.1.183.284.342.514.474.694l.095.129.054.073V29.5a2,2,0,0,1-1.043,1.757l-2,1.093-.349-.031-.142.3-4.261,2.324A6.833,6.833,0,0,0,10.6,40.946Zm33.325,1.7H12.118v-1.7a5.314,5.314,0,0,1,2.771-4.668l6.757-3.685A3.517,3.517,0,0,0,23.479,29.5V26.461h0l-.147-.176-.029-.034s-.048-.059-.125-.159l-.014-.018c-.04-.052-.087-.115-.141-.19l0,0c-.113-.157-.254-.361-.412-.606l-.011-.017c-.074-.116-.153-.242-.233-.376l-.018-.03c-.171-.287-.353-.612-.534-.972v0c-.1-.193-.192-.4-.286-.607h0l-.039-.088h0c-.042-.095-.083-.194-.126-.3l-.045-.114c-.039-.1-.08-.2-.122-.314-.077-.206-.15-.421-.22-.643l-.042-.135c0-.015-.01-.03-.014-.046-.071-.239-.139-.484-.2-.735l-.069-.3-.258-.167a1.51,1.51,0,0,1-.7-1.27v-3.03a1.5,1.5,0,0,1,.507-1.117l.25-.225V9.806l-.02-.016a5.243,5.243,0,0,1,1.229-3.617c1.255-1.432,3.4-2.158,6.365-2.158s5.095.72,6.351,2.142A5.331,5.331,0,0,1,35.6,9.975L35.6,14.791l.25.226a1.492,1.492,0,0,1,.507,1.116v3.03A1.506,1.506,0,0,1,35.277,20.6l-.377.116-.121.375a15.855,15.855,0,0,1-2.146,4.327,9.966,9.966,0,0,1-.634.817l-.189.215v3.124a3.5,3.5,0,0,0,1.943,3.145l7.235,3.617a5.288,5.288,0,0,1,2.939,4.756Z" transform="translate(-1232.505 355.507)"/></svg>