<svg xmlns="http://www.w3.org/2000/svg" viewBox="-1342.387 395.344 23.002 23"><defs><style>.a{fill:none;stroke:#63add7;}</style></defs><g transform="translate(-1341.888 391.107)"><path class="a" d="M1.445,12.767a5.442,5.442,0,0,0,.479,1.149l-.578.737a.609.609,0,0,0,.045.8l1,1.006a.591.591,0,0,0,.793.045l.725-.579a5.236,5.236,0,0,0,1.182.505l.109.942a.6.6,0,0,0,.592.534H7.2a.6.6,0,0,0,.592-.534l.1-.908a5.294,5.294,0,0,0,1.267-.517l.7.56a.594.594,0,0,0,.793-.045l1-1.006a.607.607,0,0,0,.045-.8l-.545-.7a5.284,5.284,0,0,0,.522-1.259l.84-.1a.6.6,0,0,0,.529-.6V10.579a.6.6,0,0,0-.529-.6l-.828-.1a5.319,5.319,0,0,0-.5-1.245l.51-.651a.609.609,0,0,0-.045-.8l-.994-1a.591.591,0,0,0-.793-.045l-.625.5a5.223,5.223,0,0,0-1.3-.548l-.094-.818a.6.6,0,0,0-.592-.534H5.845a.6.6,0,0,0-.592.534l-.094.818a5.2,5.2,0,0,0-1.329.567l-.649-.52a.594.594,0,0,0-.793.045l-1,1.006a.607.607,0,0,0-.045.8l.543.694A5.218,5.218,0,0,0,1.4,9.94l-.869.1a.6.6,0,0,0-.529.6v1.423a.6.6,0,0,0,.529.6Zm5.1-3.851A2.353,2.353,0,1,1,4.221,11.27,2.345,2.345,0,0,1,6.55,8.917Z" transform="translate(0)"/><path class="a" d="M487.12,289.392l-.743-.634a.584.584,0,0,0-.784.021l-.411.389a4.212,4.212,0,0,0-1.1-.358l-.116-.572a.594.594,0,0,0-.628-.477l-.97.083a.594.594,0,0,0-.54.575l-.019.582a4.24,4.24,0,0,0-1.046.556l-.491-.329a.585.585,0,0,0-.776.112l-.628.756a.6.6,0,0,0,.021.792l.43.463a4.479,4.479,0,0,0-.316,1.059l-.614.126a.6.6,0,0,0-.472.634l.083.98a.594.594,0,0,0,.569.546l.663.021a4.394,4.394,0,0,0,.47.906l-.371.565a.6.6,0,0,0,.111.784l.743.634a.584.584,0,0,0,.784-.021l.486-.46a4.229,4.229,0,0,0,1,.329l.135.672a.594.594,0,0,0,.628.477l.97-.083a.594.594,0,0,0,.54-.575l.021-.658a4.346,4.346,0,0,0,1-.51l.536.358a.585.585,0,0,0,.776-.112l.628-.751a.6.6,0,0,0-.021-.792l-.432-.463a4.327,4.327,0,0,0,.34-1.063l.59-.122a.6.6,0,0,0,.472-.634l-.083-.98a.594.594,0,0,0-.569-.546l-.592-.019a4.343,4.343,0,0,0-.493-.982l.323-.491A.6.6,0,0,0,487.12,289.392Zm-3.656,5.665a1.926,1.926,0,1,1,1.739-2.081A1.913,1.913,0,0,1,483.464,295.057Z" transform="translate(-466.641 -276.274)"/><path class="a" d="M182.833,562.208a.593.593,0,0,0-.529.586l-.007.6a.592.592,0,0,0,.514.6l.439.057a3.461,3.461,0,0,0,.312.77l-.283.353a.6.6,0,0,0,.035.792l.418.432a.585.585,0,0,0,.784.055l.352-.274a3.431,3.431,0,0,0,.784.346l.047.458a.592.592,0,0,0,.581.534l.6.007a.59.59,0,0,0,.592-.52l.054-.434a3.529,3.529,0,0,0,.85-.334l.33.269a.584.584,0,0,0,.784-.036l.427-.422a.6.6,0,0,0,.054-.792l-.253-.331a3.476,3.476,0,0,0,.359-.834l.392-.041a.593.593,0,0,0,.529-.586l.007-.6a.592.592,0,0,0-.514-.6l-.382-.05a3.612,3.612,0,0,0-.323-.835l.238-.3a.6.6,0,0,0-.035-.792l-.418-.431a.585.585,0,0,0-.784-.055l-.286.222a3.45,3.45,0,0,0-.859-.377l-.038-.374a.592.592,0,0,0-.581-.534l-.6-.007a.59.59,0,0,0-.592.52l-.047.372a3.544,3.544,0,0,0-.89.367l-.3-.243a.584.584,0,0,0-.784.036l-.43.424a.6.6,0,0,0-.054.792l.253.329a3.507,3.507,0,0,0-.337.834Zm3.854-.682a1.569,1.569,0,1,1-1.572,1.55A1.563,1.563,0,0,1,186.687,561.526Z" transform="translate(-177.994 -540.788)"/></g></svg>