<svg xmlns="http://www.w3.org/2000/svg" viewBox="-997.375 381.882 11.383 14">
  <defs>
    <style>
      .cls-1 {
        fill: red;
      }
    </style>
  </defs>
  <path id="icon-delete" class="cls-1" d="M2510.616,8045.014h-.875v10.061a1.283,1.283,0,0,1-.1.511,1.3,1.3,0,0,1-.7.7,1.286,1.286,0,0,1-.511.1h-7a1.278,1.278,0,0,1-.511-.106,1.306,1.306,0,0,1-.7-.7,1.276,1.276,0,0,1-.105-.51v-10.054h-.875v-.875h3.5v-.874a.843.843,0,0,1,.07-.343.888.888,0,0,1,.189-.28.929.929,0,0,1,.28-.189.85.85,0,0,1,.342-.07h2.624a.845.845,0,0,1,.343.07.909.909,0,0,1,.28.189.89.89,0,0,1,.189.279.848.848,0,0,1,.07.344v.874h3.5v.875Zm-1.749,0H2501v10.061a.441.441,0,0,0,.441.441h7a.44.44,0,0,0,.441-.434v-10.054Zm-5.248,8.746h-.875v-7h.875Zm0-9.621h2.624v-.875h-2.624Zm1.749,9.621h-.875v-7h.875Zm1.749,0h-.875v-7h.875Z" transform="translate(-3496.615 -7660.508)"/>
</svg>
