<svg xmlns="http://www.w3.org/2000/svg" viewBox="-1176.963 358.204 42.9 41.656"><defs><style>.a{fill:#fff;}</style></defs><path class="a" d="M42.739,21.518l-4.715-5.5,4.715-5.5a.669.669,0,0,0-.183-1.022L27.289,1.013a.67.67,0,0,0-.8.11l-4.637,4.6L17.259,1.125a.67.67,0,0,0-.81-.106L.335,10.348a.669.669,0,0,0-.1,1.089l5.461,4.68L.983,22.4a.67.67,0,0,0,.211.988L5.888,26a.655.655,0,0,0-.04.2v6.2A2.313,2.313,0,0,0,7,34.39L20.64,42.265a2.384,2.384,0,0,0,1.19.317h.012l.01,0c.007,0,.013,0,.02,0a2.384,2.384,0,0,0,1.148-.315l13.6-7.851a2.4,2.4,0,0,0,1.192-2.066V25.44l4.768-2.914a.67.67,0,0,0,.159-1.008ZM21.182,23.347,7.938,15.99,21.182,7.9ZM22.522,7.869,35.81,15.99,22.522,23.372Zm4.555-5.44,14.109,7.838L37,15.147l-14.078-8.6Zm-10.4.007L20.8,6.559,6.673,15.191,1.824,11.035ZM6.793,16.886,20.848,24.7,16.6,30.412,2.516,22.589ZM7.67,33.23a.968.968,0,0,1-.481-.834V26.719l9.271,5.151a.67.67,0,0,0,.863-.186l3.858-5.19V41.03Zm28.8-.882a1.05,1.05,0,0,1-.522.905L22.522,41.005V26.479l3.9,5.206a.67.67,0,0,0,.886.17l9.158-5.6Zm-9.337-1.954-4.263-5.683,14.117-7.843,4.22,4.924Z" transform="translate(-1176.963 357.276)"/></svg>