<svg xmlns="http://www.w3.org/2000/svg" viewBox="-1135.782 271.35 52.282 52.282"><defs><style>.a{fill:#7f40bd;}.b{fill:#fff;}</style></defs><g transform="translate(-1406 -188)"><rect class="a" width="52.282" height="52.282" transform="translate(270.218 459.35)"/><path class="b" d="M29.577,21.355H17.783a.423.423,0,0,0-.421.464l.23,2.384a.423.423,0,0,0,.4.382l2.464.136-4.731,6.564L10.564,21.006l3.724-.142a.423.423,0,0,0,.407-.417l.027-2.132a.423.423,0,0,0-.423-.429H.423A.423.423,0,0,0,0,18.309v2.376a.423.423,0,0,0,.417.423l3.921.056,7.456,13.154-.033,8.215-5.184.213a.423.423,0,0,0-.406.415l-.042,2.2a.423.423,0,0,0,.423.431H22.769a.423.423,0,0,0,.423-.445l-.113-2.176a.423.423,0,0,0-.4-.4l-4.46-.234-.649-8,8.007-9.648,3.26-.148a.424.424,0,0,0,.386-.3l.756-2.521a.423.423,0,0,0-.4-.56Z" transform="translate(281 454.04)"/></g></svg>