<svg xmlns="http://www.w3.org/2000/svg" viewBox="-951 286 17.771 24"><defs><style>.a{fill:#f0474d;}</style></defs><g transform="translate(-951 286)"><path class="a" d="M35.339,24V0H25.207a.47.47,0,0,0-.424.506.47.47,0,0,0,.424.506h9.285V22.988h-9.32a.514.514,0,0,0,0,1.012ZM23.167,11.493V7.7a1.156,1.156,0,0,0-.131-.574.583.583,0,0,0-.505-.325.739.739,0,0,0-.52.252l-4.1,4.1a1.223,1.223,0,0,0,0,1.7l4.1,4.1a.737.737,0,0,0,.52.253c.307,0,.637-.281.637-.9v-3.8h7.176a.514.514,0,0,0,0-1.012H23.167Zm-.847,4.439-3.866-3.86A.109.109,0,0,1,18.416,12a.111.111,0,0,1,.038-.072l3.863-3.863Z" transform="translate(-17.568)"/></g></svg>