<svg xmlns="http://www.w3.org/2000/svg" viewBox="-1068 420.784 24 23.254"><defs><style>.a{fill:#6db7d8;}</style></defs><g transform="translate(-1068.003 420.833)"><g transform="translate(0.003 -0.05)"><path class="a" d="M23.782,11.784A35.8,35.8,0,0,1,12.407.185a.463.463,0,0,0-.806,0A35.577,35.577,0,0,1,.226,11.784a.472.472,0,0,0,.246.873l2.351-.537,1.59,10.143a1.112,1.112,0,0,0,1.12.94h12.9a1.132,1.132,0,0,0,1.12-.94L21.162,12.12l2.329.537A.475.475,0,0,0,23.782,11.784Z" transform="translate(-0.003 0.05)"/></g></g></svg>