<svg xmlns="http://www.w3.org/2000/svg" viewBox="-966 420 24 24"><defs><style>.a{fill:#4de6a5;}</style></defs><g transform="translate(-966 420)"><path class="a" d="M24,10.927v2.146a1.265,1.265,0,0,1-1.07,1.245c-.452.067-.915.132-1.377.193a.136.136,0,0,0-.115.1,9.755,9.755,0,0,1-.921,2.221.135.135,0,0,0,.013.151c.284.37.567.744.838,1.111a1.264,1.264,0,0,1-.124,1.637l-1.517,1.517a1.265,1.265,0,0,1-1.637.124c-.366-.271-.74-.553-1.111-.838a.137.137,0,0,0-.151-.013,9.744,9.744,0,0,1-2.221.921.136.136,0,0,0-.1.115c-.061.463-.126.926-.193,1.377A1.265,1.265,0,0,1,13.073,24H10.928a1.265,1.265,0,0,1-1.245-1.07c-.067-.451-.132-.914-.193-1.377a.136.136,0,0,0-.1-.115,9.744,9.744,0,0,1-2.221-.921.137.137,0,0,0-.151.013c-.37.285-.744.567-1.111.838a1.265,1.265,0,0,1-1.637-.124L2.756,19.727a1.264,1.264,0,0,1-.124-1.637c.271-.367.553-.74.838-1.111a.135.135,0,0,0,.013-.151,9.765,9.765,0,0,1-.921-2.221.136.136,0,0,0-.115-.1c-.462-.061-.926-.125-1.377-.193A1.265,1.265,0,0,1,0,13.073V10.927A1.265,1.265,0,0,1,1.07,9.682c.452-.068.915-.132,1.377-.193a.136.136,0,0,0,.115-.1,9.765,9.765,0,0,1,.921-2.221.135.135,0,0,0-.013-.151c-.284-.369-.566-.743-.838-1.111a1.265,1.265,0,0,1,.124-1.637L4.273,2.756A1.264,1.264,0,0,1,5.91,2.633c.366.271.74.553,1.111.838a.136.136,0,0,0,.151.013,9.744,9.744,0,0,1,2.221-.921.136.136,0,0,0,.1-.115c.061-.463.126-.927.193-1.377A1.265,1.265,0,0,1,10.928,0h2.146a1.265,1.265,0,0,1,1.245,1.07c.067.451.132.914.193,1.377a.136.136,0,0,0,.1.115,9.744,9.744,0,0,1,2.221.921.135.135,0,0,0,.151-.013c.37-.285.744-.567,1.111-.838a1.264,1.264,0,0,1,1.637.124l1.517,1.517a1.264,1.264,0,0,1,.124,1.637c-.271.367-.554.741-.838,1.111a.135.135,0,0,0-.013.151,9.755,9.755,0,0,1,.921,2.221.136.136,0,0,0,.115.1c.462.061.926.126,1.377.193A1.265,1.265,0,0,1,24,10.927Zm-1.121,2.146V10.927a.138.138,0,0,0-.115-.136c-.445-.067-.9-.131-1.357-.19a1.253,1.253,0,0,1-1.051-.91,8.612,8.612,0,0,0-.815-1.966,1.255,1.255,0,0,1,.1-1.388c.28-.364.558-.732.825-1.093a.137.137,0,0,0-.015-.178L18.934,3.549a.137.137,0,0,0-.178-.015c-.36.267-.728.544-1.093.825a1.255,1.255,0,0,1-1.388.1,8.66,8.66,0,0,0-1.966-.815,1.254,1.254,0,0,1-.91-1.051c-.06-.456-.124-.912-.19-1.356a.137.137,0,0,0-.136-.115H10.928a.138.138,0,0,0-.137.115c-.066.444-.13.9-.19,1.356a1.254,1.254,0,0,1-.91,1.051,8.662,8.662,0,0,0-1.966.815,1.255,1.255,0,0,1-1.388-.1C5.972,4.078,5.6,3.8,5.244,3.534a.137.137,0,0,0-.178.015L3.549,5.066a.137.137,0,0,0-.015.178c.268.362.545.73.825,1.093a1.255,1.255,0,0,1,.1,1.388,8.61,8.61,0,0,0-.815,1.966,1.254,1.254,0,0,1-1.051.91c-.455.059-.911.123-1.356.19a.137.137,0,0,0-.115.136v2.146a.138.138,0,0,0,.115.136c.445.067.9.131,1.357.19a1.254,1.254,0,0,1,1.051.91,8.612,8.612,0,0,0,.815,1.966,1.255,1.255,0,0,1-.1,1.388c-.28.364-.558.732-.825,1.093a.137.137,0,0,0,.015.178l1.517,1.517a.138.138,0,0,0,.178.015c.36-.267.728-.544,1.093-.825a1.255,1.255,0,0,1,1.388-.1,8.66,8.66,0,0,0,1.966.815,1.254,1.254,0,0,1,.91,1.051c.06.456.124.912.19,1.356a.138.138,0,0,0,.137.115h2.145a.137.137,0,0,0,.137-.115c.067-.444.13-.9.19-1.356a1.254,1.254,0,0,1,.91-1.051,8.662,8.662,0,0,0,1.966-.815,1.255,1.255,0,0,1,1.388.1c.365.281.733.558,1.093.825a.137.137,0,0,0,.178-.015l1.517-1.517a.137.137,0,0,0,.015-.178c-.267-.361-.545-.729-.825-1.093a1.255,1.255,0,0,1-.1-1.388,8.61,8.61,0,0,0,.815-1.966,1.253,1.253,0,0,1,1.051-.91c.455-.059.911-.123,1.356-.19A.137.137,0,0,0,22.879,13.073Z"/><path class="a" d="M45.669,33.716v2.146a.138.138,0,0,1-.115.136c-.445.067-.9.131-1.356.19a1.253,1.253,0,0,0-1.051.91,8.612,8.612,0,0,1-.815,1.966,1.255,1.255,0,0,0,.1,1.388c.28.364.558.732.825,1.093a.137.137,0,0,1-.015.178l-1.517,1.517a.138.138,0,0,1-.178.015c-.36-.267-.728-.544-1.093-.825a1.255,1.255,0,0,0-1.388-.1,8.66,8.66,0,0,1-1.966.815,1.254,1.254,0,0,0-.91,1.051c-.06.456-.123.912-.19,1.356a.137.137,0,0,1-.137.115H33.718a.138.138,0,0,1-.137-.115c-.066-.444-.13-.9-.19-1.356a1.254,1.254,0,0,0-.91-1.051,8.662,8.662,0,0,1-1.966-.815,1.255,1.255,0,0,0-1.388.1c-.365.281-.733.558-1.093.825a.138.138,0,0,1-.178-.015l-1.517-1.517a.137.137,0,0,1-.015-.178c.267-.361.545-.729.825-1.093a1.255,1.255,0,0,0,.1-1.388,8.609,8.609,0,0,1-.815-1.966,1.254,1.254,0,0,0-1.051-.91c-.456-.059-.912-.123-1.357-.19a.137.137,0,0,1-.115-.136V33.716a.138.138,0,0,1,.115-.136c.445-.067.9-.131,1.356-.19a1.254,1.254,0,0,0,1.051-.91,8.612,8.612,0,0,1,.815-1.966,1.255,1.255,0,0,0-.1-1.388c-.28-.364-.557-.731-.825-1.093a.137.137,0,0,1,.015-.178l1.517-1.517a.137.137,0,0,1,.178-.015c.36.267.728.544,1.093.825a1.255,1.255,0,0,0,1.388.1,8.66,8.66,0,0,1,1.966-.815,1.254,1.254,0,0,0,.91-1.051c.06-.456.124-.912.19-1.356a.138.138,0,0,1,.137-.115h2.146a.137.137,0,0,1,.136.115c.066.444.13.9.19,1.356a1.254,1.254,0,0,0,.91,1.051,8.662,8.662,0,0,1,1.966.815,1.255,1.255,0,0,0,1.388-.1c.365-.281.733-.558,1.093-.825a.137.137,0,0,1,.178.015l1.517,1.517a.137.137,0,0,1,.015.178c-.267.361-.545.729-.825,1.093a1.255,1.255,0,0,0-.1,1.388,8.61,8.61,0,0,1,.815,1.966,1.253,1.253,0,0,0,1.051.91c.456.059.912.123,1.357.19A.137.137,0,0,1,45.669,33.716ZM40,34.789A5.21,5.21,0,1,0,34.79,40,5.216,5.216,0,0,0,40,34.789Z" transform="translate(-22.79 -22.789)"/><path class="a" d="M150.071,144.861a5.21,5.21,0,1,1-5.21,5.21A5.216,5.216,0,0,1,150.071,144.861Zm4.089,5.21a4.089,4.089,0,1,0-4.089,4.089A4.094,4.094,0,0,0,154.16,150.071Z" transform="translate(-138.071 -138.071)"/></g></svg>