<svg xmlns="http://www.w3.org/2000/svg" viewBox="-1243.028 123.76 320.291 109.325"><defs><style>.a,.b{fill:#fff;}.a{font-size:20px;font-family:Roboto-Medium, Roboto;font-weight:500;}</style></defs><g transform="translate(-1243.028 123.76)"><text class="a" transform="translate(202.709 104.325)"><tspan x="0" y="0">atur datamu</tspan></text><g transform="translate(0 0)"><path class="b" d="M0,95.524a5.008,5.008,0,0,1,1.242-2.931l2.583-3.378a16.67,16.67,0,0,1,1.788-2.285,2.012,2.012,0,0,1,1.441-.646,4.391,4.391,0,0,1,1.54.4c.6.3,1.441.745,2.533,1.391.149.1,1.341.894,3.576,2.484a12.871,12.871,0,0,0,8.444,2.037,3.93,3.93,0,0,0,2.633-.944,2.76,2.76,0,0,0,.944-2.136,3.932,3.932,0,0,0-1.689-3.08,8.268,8.268,0,0,0-4.769-1.639h.1a34.021,34.021,0,0,1-9.637-3.179A12.357,12.357,0,0,1,5.812,77a15.21,15.21,0,0,1-1.739-6.606A14.383,14.383,0,0,1,6.06,61.9a16.2,16.2,0,0,1,6.457-6.06A20.484,20.484,0,0,1,22.2,53.6a28.877,28.877,0,0,1,8.146,1.192,28.435,28.435,0,0,1,6.159,2.434A14.373,14.373,0,0,1,40.881,60.7a2.241,2.241,0,0,1,.447,3.328,19.071,19.071,0,0,1-1.788,2.235L37.5,68.452a12.1,12.1,0,0,1-1.49,1.441,1.827,1.827,0,0,1-1.043.4,2.955,2.955,0,0,1-1.242-.4c-.5-.3-1.043-.6-1.49-.894-.5-.3-.944-.6-1.291-.795-3.229-2.086-6.06-3.08-8.494-3.08a5.172,5.172,0,0,0-3.527,1.093,3.387,3.387,0,0,0-1.291,2.633,3.785,3.785,0,0,0,1.242,2.782,6.3,6.3,0,0,0,3.576,1.59c6.706,1.043,11.723,3.03,15,5.961,3.328,2.931,4.967,6.308,4.967,10.133a14.281,14.281,0,0,1-2.633,8.1,18.98,18.98,0,0,1-7.3,6.308,22.12,22.12,0,0,1-10.431,2.434c-6.259,0-12.567-2.186-18.925-6.606Q0,97.387,0,95.524Z" transform="translate(0 -26.926)"/><path class="b" d="M135.487,57a2.859,2.859,0,0,1,2.086.894,2.727,2.727,0,0,1,.894,1.987v8.146a3.056,3.056,0,0,1-2.98,2.98H124.361V102.8a3.165,3.165,0,0,1-.795,2.235,2.572,2.572,0,0,1-1.987.894H112.24a2.572,2.572,0,0,1-1.987-.894,3.165,3.165,0,0,1-.795-2.235l.5-31.84H98.729a3.033,3.033,0,0,1-2.235-.894,2.859,2.859,0,0,1-.894-2.086v-8.1a2.675,2.675,0,0,1,.894-2.037A3.2,3.2,0,0,1,98.729,57Z" transform="translate(-48.113 -28.637)"/><path class="b" d="M187.6,52.951a24.768,24.768,0,0,1,3.477-12.865,26.561,26.561,0,0,1,9.388-9.388,24.767,24.767,0,0,1,12.865-3.477A25.071,25.071,0,0,1,226.246,30.7a26.3,26.3,0,0,1,9.438,9.388,25.539,25.539,0,0,1,0,25.731,26.3,26.3,0,0,1-9.438,9.388,24.943,24.943,0,0,1-12.915,3.477A24.64,24.64,0,0,1,200.465,75.2a26.561,26.561,0,0,1-9.388-9.388A25.246,25.246,0,0,1,187.6,52.951Zm36.708-.646a10.32,10.32,0,0,0-1.54-5.563,11.433,11.433,0,0,0-4.123-4.024,10.682,10.682,0,0,0-5.514-1.49,11.088,11.088,0,0,0-5.663,1.49,10.786,10.786,0,0,0-4.024,4.024,11.226,11.226,0,0,0-1.49,5.563,10.73,10.73,0,0,0,1.49,5.563,11.3,11.3,0,0,0,4.024,4.073,10.959,10.959,0,0,0,5.663,1.49,10.682,10.682,0,0,0,5.514-1.49,11.981,11.981,0,0,0,4.123-4.073A10.32,10.32,0,0,0,224.308,52.3Zm3.576-45.55a5.988,5.988,0,0,1-1.987,4.57,6.6,6.6,0,0,1-4.719,1.888,6.307,6.307,0,0,1-4.62-1.937,6.337,6.337,0,0,1-1.937-4.669,6.689,6.689,0,0,1,1.888-4.719A6.274,6.274,0,0,1,221.129-.1,6.481,6.481,0,0,1,225.9,1.837,6.668,6.668,0,0,1,227.885,6.755Zm-4.123-.546a2.7,2.7,0,0,0-.894-1.639,2.439,2.439,0,0,0-1.739-.646,2.255,2.255,0,0,0-1.739.745,2.6,2.6,0,0,0-.7,1.788,2.544,2.544,0,0,0,2.533,2.533,2.424,2.424,0,0,0,1.838-.894A2.638,2.638,0,0,0,223.762,6.208Zm22.7,14.355a9.525,9.525,0,0,1-1.54,5.216A12.15,12.15,0,0,1,240.9,29.7a9.692,9.692,0,0,1-5.116,1.49,10.009,10.009,0,0,1-5.216-1.391,10.713,10.713,0,0,1-3.825-3.775,10.408,10.408,0,0,1-.05-10.481,10.853,10.853,0,0,1,3.775-3.874,10.1,10.1,0,0,1,5.265-1.441A10.313,10.313,0,0,1,241,11.623a10.594,10.594,0,0,1,3.924,3.775A8.8,8.8,0,0,1,246.462,20.564Zm-6.9-.248a3.4,3.4,0,0,0-1.192-2.682,3.828,3.828,0,0,0-2.732-1.093,3.778,3.778,0,0,0-2.831,1.142,4.093,4.093,0,0,0,.05,5.514,3.567,3.567,0,0,0,2.782,1.142,3.732,3.732,0,0,0,2.732-1.192A3.868,3.868,0,0,0,239.558,20.316Z" transform="translate(-94.414 0.1)"/><path class="b" d="M353.465,103.6a3.054,3.054,0,0,1-.546,1.788,1.769,1.769,0,0,1-1.391.795l-12.667.05a2.1,2.1,0,0,1-1.739-.894l-9.438-13.511L317.75,105.24a2.265,2.265,0,0,1-.944.993,2.94,2.94,0,0,1-1.44.348H305.332a2.564,2.564,0,0,1-2.732-2.732V60.982a2.658,2.658,0,0,1,.795-1.987,2.774,2.774,0,0,1,1.987-.795h10.034a2.714,2.714,0,0,1,2.732,2.732V79.559L333.7,59.79c.844-1.093,2.235-1.54,4.222-1.391l10.829.05h-.05a1.592,1.592,0,0,1,1.54,1.739,4.056,4.056,0,0,1-.844,2.235L337.421,78.665l15.6,23.247A3.581,3.581,0,0,1,353.465,103.6Z" transform="translate(-152.29 -29.241)"/><path class="b" d="M412.6,95.524a5.008,5.008,0,0,1,1.242-2.931l2.583-3.378a16.668,16.668,0,0,1,1.788-2.285,2.012,2.012,0,0,1,1.44-.646,4.39,4.39,0,0,1,1.54.4c.6.3,1.44.745,2.533,1.391.149.1,1.341.894,3.576,2.484a12.871,12.871,0,0,0,8.444,2.037,3.931,3.931,0,0,0,2.633-.944,2.76,2.76,0,0,0,.944-2.136,3.932,3.932,0,0,0-1.689-3.08,8.268,8.268,0,0,0-4.769-1.639h.05a34.02,34.02,0,0,1-9.637-3.179A12.358,12.358,0,0,1,418.362,77a15.211,15.211,0,0,1-1.739-6.606A14.383,14.383,0,0,1,418.61,61.9a16.2,16.2,0,0,1,6.457-6.06,20.344,20.344,0,0,1,9.686-2.235,28.876,28.876,0,0,1,8.146,1.192,28.435,28.435,0,0,1,6.159,2.434,14.374,14.374,0,0,1,4.371,3.477,2.241,2.241,0,0,1,.447,3.328,19.082,19.082,0,0,1-1.788,2.235l-2.037,2.186a12.094,12.094,0,0,1-1.49,1.441,1.827,1.827,0,0,1-1.043.4,2.955,2.955,0,0,1-1.242-.4c-.5-.3-1.043-.6-1.49-.894-.5-.3-.944-.6-1.292-.795-3.229-2.086-6.06-3.08-8.494-3.08a5.172,5.172,0,0,0-3.527,1.093,3.388,3.388,0,0,0-1.292,2.633,3.785,3.785,0,0,0,1.242,2.782A6.3,6.3,0,0,0,435,73.221c6.706,1.043,11.723,3.03,15,5.961s4.967,6.308,4.967,10.133a14.281,14.281,0,0,1-2.633,8.1,18.98,18.98,0,0,1-7.3,6.308,22.119,22.119,0,0,1-10.431,2.434c-6.259,0-12.567-2.186-18.925-6.606C413.643,98.107,412.6,96.766,412.6,95.524Z" transform="translate(-207.649 -26.926)"/><path class="b" d="M513.8,102.7V59.829a3.416,3.416,0,0,1,.844-2.285,2.756,2.756,0,0,1,2.235-.944h9.637a2.76,2.76,0,0,1,2.136.944,3.23,3.23,0,0,1,.894,2.285V102.7a3.032,3.032,0,0,1-.894,2.335,2.889,2.889,0,0,1-2.136.894H516.88a2.882,2.882,0,0,1-2.235-.894A3.2,3.2,0,0,1,513.8,102.7Z" transform="translate(-258.58 -28.435)"/><path class="b" d="M559.5,95.524a5.008,5.008,0,0,1,1.242-2.931l2.583-3.378a16.675,16.675,0,0,1,1.788-2.285,2.013,2.013,0,0,1,1.441-.646,4.391,4.391,0,0,1,1.54.4c.6.3,1.44.745,2.533,1.391.149.1,1.341.894,3.576,2.484a12.871,12.871,0,0,0,8.444,2.037,3.93,3.93,0,0,0,2.633-.944,2.76,2.76,0,0,0,.944-2.136,3.932,3.932,0,0,0-1.689-3.08,8.268,8.268,0,0,0-4.769-1.639h.05a34.021,34.021,0,0,1-9.637-3.179A12.357,12.357,0,0,1,565.262,77a15.208,15.208,0,0,1-1.739-6.606A14.382,14.382,0,0,1,565.51,61.9a16.2,16.2,0,0,1,6.457-6.06,20.344,20.344,0,0,1,9.686-2.235,28.876,28.876,0,0,1,8.146,1.192,28.433,28.433,0,0,1,6.159,2.434,14.372,14.372,0,0,1,4.371,3.477,2.241,2.241,0,0,1,.447,3.328,19.072,19.072,0,0,1-1.788,2.235l-2.037,2.186a12.1,12.1,0,0,1-1.49,1.441,1.827,1.827,0,0,1-1.043.4,2.955,2.955,0,0,1-1.242-.4c-.5-.3-1.043-.6-1.49-.894-.5-.3-.944-.6-1.292-.795-3.229-2.086-6.06-3.08-8.494-3.08a5.172,5.172,0,0,0-3.527,1.093,3.387,3.387,0,0,0-1.291,2.633,3.785,3.785,0,0,0,1.242,2.782,6.3,6.3,0,0,0,3.576,1.59c6.706,1.043,11.723,3.03,15,5.961s4.967,6.308,4.967,10.133a14.28,14.28,0,0,1-2.633,8.1,18.979,18.979,0,0,1-7.3,6.308,22.12,22.12,0,0,1-10.431,2.434c-6.259,0-12.567-2.186-18.925-6.606C560.543,98.107,559.5,96.766,559.5,95.524Z" transform="translate(-281.58 -26.926)"/></g></g></svg>