<svg xmlns="http://www.w3.org/2000/svg" viewBox="-1389 165.003 111.757 27.645"><defs><style>.a{fill:#63add7;}</style></defs><g transform="translate(-1389 165.003)"><g transform="translate(0 0)"><path class="a" d="M0,68.228a1.747,1.747,0,0,1,.433-1.023l.9-1.179a5.817,5.817,0,0,1,.624-.8.7.7,0,0,1,.5-.225A1.532,1.532,0,0,1,3,65.143c.208.1.5.26.884.485.052.035.468.312,1.248.867a4.491,4.491,0,0,0,2.946.711A1.371,1.371,0,0,0,9,66.876a.963.963,0,0,0,.329-.745,1.372,1.372,0,0,0-.589-1.075,2.885,2.885,0,0,0-1.664-.572h.035a11.871,11.871,0,0,1-3.362-1.109,4.312,4.312,0,0,1-1.716-1.612,5.307,5.307,0,0,1-.607-2.305,5.019,5.019,0,0,1,.693-2.964A5.652,5.652,0,0,1,4.368,54.38a7.147,7.147,0,0,1,3.38-.78,10.076,10.076,0,0,1,2.842.416,9.922,9.922,0,0,1,2.149.849,5.015,5.015,0,0,1,1.525,1.213.782.782,0,0,1,.156,1.161,6.654,6.654,0,0,1-.624.78l-.711.763a4.221,4.221,0,0,1-.52.5.637.637,0,0,1-.364.139,1.031,1.031,0,0,1-.433-.139c-.173-.1-.364-.208-.52-.312-.173-.1-.329-.208-.451-.277a5.648,5.648,0,0,0-2.964-1.075A1.8,1.8,0,0,0,6.6,58a1.182,1.182,0,0,0-.451.919,1.321,1.321,0,0,0,.433.971,2.2,2.2,0,0,0,1.248.555,10.1,10.1,0,0,1,5.234,2.08A4.594,4.594,0,0,1,14.8,66.062a4.983,4.983,0,0,1-.919,2.825,6.623,6.623,0,0,1-2.548,2.2,7.718,7.718,0,0,1-3.64.849,11.52,11.52,0,0,1-6.6-2.305Q0,68.878,0,68.228Z" transform="translate(0 -44.293)"/><path class="a" d="M109.518,57a1,1,0,0,1,.728.312.951.951,0,0,1,.312.693v2.842a1.066,1.066,0,0,1-1.04,1.04h-3.882V72.98a1.1,1.1,0,0,1-.277.78.9.9,0,0,1-.693.312h-3.258a.9.9,0,0,1-.693-.312,1.1,1.1,0,0,1-.277-.78l.173-11.11H96.692a1.058,1.058,0,0,1-.78-.312,1,1,0,0,1-.312-.728V58.005a.933.933,0,0,1,.312-.711,1.117,1.117,0,0,1,.78-.295Z" transform="translate(-79.031 -47.103)"/><path class="a" d="M187.6,18.411a8.642,8.642,0,0,1,1.213-4.489,9.268,9.268,0,0,1,3.276-3.276,8.642,8.642,0,0,1,4.489-1.213,8.748,8.748,0,0,1,4.506,1.213,9.177,9.177,0,0,1,3.293,3.276,8.911,8.911,0,0,1,0,8.978,9.177,9.177,0,0,1-3.293,3.276,8.7,8.7,0,0,1-4.506,1.213,8.6,8.6,0,0,1-4.489-1.213,9.268,9.268,0,0,1-3.276-3.276A8.809,8.809,0,0,1,187.6,18.411Zm12.808-.225a3.6,3.6,0,0,0-.537-1.941,3.989,3.989,0,0,0-1.439-1.4,3.727,3.727,0,0,0-1.924-.52,3.869,3.869,0,0,0-1.976.52,3.764,3.764,0,0,0-1.4,1.4,3.917,3.917,0,0,0-.52,1.941,3.744,3.744,0,0,0,.52,1.941,3.941,3.941,0,0,0,1.4,1.421,3.824,3.824,0,0,0,1.976.52,3.727,3.727,0,0,0,1.924-.52,4.18,4.18,0,0,0,1.439-1.421A3.6,3.6,0,0,0,200.408,18.185Zm1.248-15.894a2.09,2.09,0,0,1-.693,1.595,2.3,2.3,0,0,1-1.647.659,2.2,2.2,0,0,1-1.612-.676,2.211,2.211,0,0,1-.676-1.629,2.334,2.334,0,0,1,.659-1.647A2.189,2.189,0,0,1,199.3-.1a2.261,2.261,0,0,1,1.664.676A2.326,2.326,0,0,1,201.656,2.292ZM200.218,2.1a.942.942,0,0,0-.312-.572A.851.851,0,0,0,199.3,1.3a.787.787,0,0,0-.607.26.908.908,0,0,0-.243.624.888.888,0,0,0,.884.884.846.846,0,0,0,.641-.312A.92.92,0,0,0,200.218,2.1Zm7.921,5.009a3.324,3.324,0,0,1-.537,1.82,4.239,4.239,0,0,1-1.4,1.369,3.382,3.382,0,0,1-1.785.52,3.492,3.492,0,0,1-1.82-.485,3.738,3.738,0,0,1-1.335-1.317,3.632,3.632,0,0,1-.017-3.657,3.787,3.787,0,0,1,1.317-1.352,3.524,3.524,0,0,1,1.837-.5,3.6,3.6,0,0,1,1.837.485A3.7,3.7,0,0,1,207.6,5.308,3.071,3.071,0,0,1,208.139,7.11Zm-2.409-.087a1.187,1.187,0,0,0-.416-.936,1.336,1.336,0,0,0-.953-.381,1.318,1.318,0,0,0-.988.4,1.428,1.428,0,0,0,.017,1.924,1.245,1.245,0,0,0,.971.4,1.3,1.3,0,0,0,.953-.416A1.35,1.35,0,0,0,205.729,7.023Z" transform="translate(-155.085 0.1)"/><path class="a" d="M320.348,74.042a1.066,1.066,0,0,1-.191.624.617.617,0,0,1-.485.277l-4.42.017a.733.733,0,0,1-.607-.312l-3.293-4.714-3.466,4.68a.79.79,0,0,1-.329.347,1.026,1.026,0,0,1-.5.121h-3.5a.895.895,0,0,1-.953-.953V59.171a.927.927,0,0,1,.277-.693.968.968,0,0,1,.693-.277h3.5a.947.947,0,0,1,.953.953v6.5l5.425-6.9a1.578,1.578,0,0,1,1.473-.485l3.778.017h-.017a.555.555,0,0,1,.537.607,1.415,1.415,0,0,1-.295.78l-4.177,5.668,5.442,8.111A1.25,1.25,0,0,1,320.348,74.042Z" transform="translate(-250.153 -48.095)"/><path class="a" d="M412.6,68.228a1.747,1.747,0,0,1,.433-1.023l.9-1.179a5.818,5.818,0,0,1,.624-.8.7.7,0,0,1,.5-.225,1.532,1.532,0,0,1,.537.139c.208.1.5.26.884.485.052.035.468.312,1.248.867a4.491,4.491,0,0,0,2.946.711,1.371,1.371,0,0,0,.919-.329.963.963,0,0,0,.329-.745,1.372,1.372,0,0,0-.589-1.075,2.885,2.885,0,0,0-1.664-.572h.017a11.87,11.87,0,0,1-3.362-1.109,4.312,4.312,0,0,1-1.716-1.612A5.307,5.307,0,0,1,414,59.458a5.019,5.019,0,0,1,.693-2.964,5.653,5.653,0,0,1,2.253-2.115,7.1,7.1,0,0,1,3.38-.78,10.075,10.075,0,0,1,2.842.416,9.922,9.922,0,0,1,2.149.849,5.016,5.016,0,0,1,1.525,1.213A.782.782,0,0,1,427,57.24a6.657,6.657,0,0,1-.624.78l-.711.763a4.218,4.218,0,0,1-.52.5.637.637,0,0,1-.364.139,1.031,1.031,0,0,1-.433-.139c-.173-.1-.364-.208-.52-.312-.173-.1-.329-.208-.451-.277a5.648,5.648,0,0,0-2.964-1.075,1.8,1.8,0,0,0-1.231.381,1.182,1.182,0,0,0-.451.919,1.321,1.321,0,0,0,.433.971,2.2,2.2,0,0,0,1.248.555,10.1,10.1,0,0,1,5.234,2.08,4.65,4.65,0,0,1,1.733,3.536,4.983,4.983,0,0,1-.919,2.825,6.622,6.622,0,0,1-2.548,2.2,7.718,7.718,0,0,1-3.64.849,11.52,11.52,0,0,1-6.6-2.305C412.964,69.13,412.6,68.662,412.6,68.228Z" transform="translate(-341.088 -44.293)"/><path class="a" d="M513.8,72.684V57.727a1.192,1.192,0,0,1,.295-.8.961.961,0,0,1,.78-.329h3.362a.963.963,0,0,1,.745.329,1.127,1.127,0,0,1,.312.8V72.684a1.058,1.058,0,0,1-.312.815,1.008,1.008,0,0,1-.745.312h-3.362a1,1,0,0,1-.78-.312A1.115,1.115,0,0,1,513.8,72.684Z" transform="translate(-424.748 -46.773)"/><path class="a" d="M559.5,68.228a1.748,1.748,0,0,1,.433-1.023l.9-1.179a5.823,5.823,0,0,1,.624-.8.7.7,0,0,1,.5-.225,1.532,1.532,0,0,1,.537.139c.208.1.5.26.884.485.052.035.468.312,1.248.867a4.491,4.491,0,0,0,2.946.711,1.371,1.371,0,0,0,.919-.329.963.963,0,0,0,.329-.745,1.372,1.372,0,0,0-.589-1.075,2.885,2.885,0,0,0-1.664-.572h.017a11.871,11.871,0,0,1-3.362-1.109,4.311,4.311,0,0,1-1.716-1.612,5.307,5.307,0,0,1-.607-2.305,5.019,5.019,0,0,1,.693-2.964,5.652,5.652,0,0,1,2.253-2.115,7.1,7.1,0,0,1,3.38-.78,10.076,10.076,0,0,1,2.842.416,9.92,9.92,0,0,1,2.149.849,5.015,5.015,0,0,1,1.525,1.213.782.782,0,0,1,.156,1.161,6.664,6.664,0,0,1-.624.78l-.711.763a4.226,4.226,0,0,1-.52.5.637.637,0,0,1-.364.139,1.031,1.031,0,0,1-.433-.139c-.173-.1-.364-.208-.52-.312-.173-.1-.329-.208-.451-.277a5.648,5.648,0,0,0-2.964-1.075,1.8,1.8,0,0,0-1.231.381,1.182,1.182,0,0,0-.451.919,1.32,1.32,0,0,0,.433.971,2.2,2.2,0,0,0,1.248.555,10.1,10.1,0,0,1,5.234,2.08,4.65,4.65,0,0,1,1.733,3.536,4.982,4.982,0,0,1-.919,2.825,6.622,6.622,0,0,1-2.548,2.2,7.718,7.718,0,0,1-3.64.849,11.52,11.52,0,0,1-6.6-2.305C559.864,69.13,559.5,68.662,559.5,68.228Z" transform="translate(-462.527 -44.293)"/></g></g></svg>